<svg width="70" height="68" viewBox="0 0 70 68" fill="none" xmlns="http://www.w3.org/2000/svg">
  <path d="M65.4044 8.99467H43.863C43.0902 7.4795 41.9408 6.17716 40.5198 5.2064C39.0988 4.23563 37.4513 3.62733 35.7275 3.43695V2.24867H36.88C37.1857 2.24867 37.4788 2.13021 37.6949 1.91936C37.9111 1.7085 38.0325 1.42253 38.0325 1.12433C38.0325 0.826142 37.9111 0.540163 37.6949 0.32931C37.4788 0.118456 37.1857 0 36.88 0H32.27C31.9643 0 31.6712 0.118456 31.4551 0.32931C31.2389 0.540163 31.1175 0.826142 31.1175 1.12433C31.1175 1.42253 31.2389 1.7085 31.4551 1.91936C31.6712 2.13021 31.9643 2.24867 32.27 2.24867H33.4225V3.43695C31.6987 3.62733 30.0512 4.23563 28.6302 5.2064C27.2092 6.17716 26.0598 7.4795 25.287 8.99467H3.74563C2.75257 8.99578 1.80052 9.38112 1.09833 10.0662C0.396138 10.7512 0.00114385 11.68 0 12.6487V52.5626C0.00114385 53.5314 0.396138 54.4601 1.09833 55.1452C1.80052 55.8302 2.75257 56.2155 3.74563 56.2167H27.66V60.714H24.2025C23.9455 60.714 23.6958 60.7978 23.4932 60.9521C23.2907 61.1065 23.1468 61.3224 23.0844 61.5657L21.9319 66.063C21.8895 66.2288 21.8863 66.4018 21.9226 66.5689C21.9589 66.7361 22.0338 66.8929 22.1416 67.0276C22.2494 67.1623 22.3872 67.2712 22.5446 67.3461C22.702 67.4211 22.8749 67.46 23.05 67.46H46.1C46.2751 67.46 46.448 67.4211 46.6054 67.3461C46.7628 67.2712 46.9006 67.1623 47.0084 67.0276C47.1162 66.8929 47.1911 66.7361 47.2274 66.5689C47.2637 66.4018 47.2605 66.2288 47.2181 66.063L46.0656 61.5657C46.0032 61.3224 45.8593 61.1065 45.6568 60.9521C45.4542 60.7978 45.2045 60.714 44.9475 60.714H41.49V56.2167H65.4044C66.3974 56.2155 67.3495 55.8302 68.0517 55.1452C68.7539 54.4601 69.1489 53.5314 69.15 52.5626V12.6487C69.1489 11.68 68.7539 10.7512 68.0517 10.0662C67.3495 9.38112 66.3974 8.99578 65.4044 8.99467ZM44.6862 15.7407H62.235V17.9893H43.863C44.2281 17.2744 44.5044 16.5195 44.6862 15.7407ZM34.575 5.62167C36.1706 5.62167 37.7304 6.08325 39.0571 6.94806C40.3838 7.81286 41.4178 9.04204 42.0284 10.4802C42.639 11.9183 42.7988 13.5007 42.4875 15.0274C42.1762 16.5541 41.4078 17.9565 40.2796 19.0572C39.1513 20.1579 37.7138 20.9074 36.1489 21.2111C34.584 21.5148 32.9618 21.3589 31.4877 20.7632C30.0136 20.1676 28.7536 19.1588 27.8671 17.8645C26.9807 16.5703 26.5075 15.0486 26.5075 13.492C26.5099 11.4054 27.3607 9.40492 28.8731 7.92946C30.3855 6.45401 32.4361 5.62405 34.575 5.62167ZM26.8521 20.238C27.8233 21.2991 29.0134 22.148 30.3442 22.7293C31.6751 23.3105 33.1168 23.611 34.575 23.611C36.0332 23.611 37.4749 23.3105 38.8058 22.7293C40.1366 22.148 41.3267 21.2991 42.2979 20.238H62.235V49.4707H6.915V20.238H26.8521ZM6.915 17.9893V15.7407H24.4638C24.6456 16.5195 24.9219 17.2744 25.287 17.9893H6.915ZM44.0477 62.9627L44.6239 65.2113H24.5261L25.1023 62.9627H44.0477ZM34.575 59.5897C35.4917 59.5887 36.3705 59.233 37.0187 58.6006C37.6669 57.9683 38.0315 57.1109 38.0325 56.2167H39.185V60.714H29.965V56.2167H31.1175C31.1185 57.1109 31.4831 57.9683 32.1313 58.6006C32.7795 59.233 33.6583 59.5887 34.575 59.5897ZM33.4225 56.2167H35.7275C35.7275 56.5149 35.6061 56.8008 35.3899 57.0117C35.1738 57.2225 34.8807 57.341 34.575 57.341C34.2693 57.341 33.9762 57.2225 33.7601 57.0117C33.5439 56.8008 33.4225 56.5149 33.4225 56.2167ZM66.845 52.5626C66.8446 52.9352 66.6927 53.2924 66.4226 53.5559C66.1525 53.8194 65.7863 53.9676 65.4044 53.968H3.74563C3.36368 53.9676 2.99749 53.8194 2.72741 53.5559C2.45733 53.2924 2.30542 52.9352 2.305 52.5626V12.6487C2.30542 12.2761 2.45733 11.9189 2.72741 11.6554C2.99749 11.3919 3.36368 11.2437 3.74563 11.2433H24.4638C24.2907 11.981 24.2031 12.7353 24.2025 13.492H5.7625C5.45684 13.492 5.1637 13.6105 4.94756 13.8213C4.73142 14.0322 4.61 14.3181 4.61 14.6163V50.595C4.61 50.8932 4.73142 51.1792 4.94756 51.39C5.1637 51.6009 5.45684 51.7193 5.7625 51.7193H63.3875C63.6932 51.7193 63.9863 51.6009 64.2024 51.39C64.4186 51.1792 64.54 50.8932 64.54 50.595V14.6163C64.54 14.3181 64.4186 14.0322 64.2024 13.8213C63.9863 13.6105 63.6932 13.492 63.3875 13.492H44.9475C44.9469 12.7353 44.8593 11.981 44.6862 11.2433H65.4044C65.7863 11.2437 66.1525 11.3919 66.4226 11.6554C66.6927 11.9189 66.8446 12.2761 66.845 12.6487V52.5626Z" fill="black"/>
  <path d="M34.0595 14.4976L36.3645 15.6219C36.5 15.6893 36.6479 15.7299 36.7995 15.7413C36.9512 15.7527 37.1037 15.7347 37.2481 15.6883C37.3926 15.642 37.5263 15.5681 37.6414 15.4711C37.7565 15.3741 37.8508 15.2559 37.9188 15.1232C37.9868 14.9904 38.0273 14.8459 38.0378 14.6979C38.0483 14.5498 38.0286 14.4012 37.98 14.2606C37.9313 14.1201 37.8546 13.9902 37.7543 13.8787C37.654 13.7672 37.532 13.6761 37.3954 13.6108L35.7275 12.7972V8.99469C35.7275 8.6965 35.6061 8.41052 35.3899 8.19967C35.1738 7.98882 34.8806 7.87036 34.575 7.87036C34.2693 7.87036 33.9762 7.98882 33.76 8.19967C33.5439 8.41052 33.4225 8.6965 33.4225 8.99469V13.492C33.4225 13.7008 33.4821 13.9055 33.5946 14.0831C33.7071 14.2607 33.8681 14.4042 34.0595 14.4976Z" fill="#FE7A00"/>
  <path d="M34.575 20.238C35.527 20.2397 36.4689 20.0483 37.341 19.6758C37.481 19.6176 37.6077 19.5328 37.7139 19.4265C37.8201 19.3202 37.9037 19.1944 37.9598 19.0564C38.0159 18.9184 38.0434 18.771 38.0408 18.6225C38.0382 18.4741 38.0055 18.3277 37.9446 18.1916C37.8837 18.0556 37.7957 17.9327 37.6859 17.83C37.576 17.7273 37.4464 17.6468 37.3045 17.5932C37.1625 17.5397 37.0112 17.514 36.859 17.5178C36.7069 17.5216 36.5571 17.5548 36.4182 17.6154C35.382 18.0558 34.2162 18.1097 33.142 17.7668C32.0678 17.4238 31.1602 16.7079 30.5915 15.7551C30.0227 14.8023 29.8326 13.6788 30.057 12.5982C30.2815 11.5176 30.905 10.555 31.809 9.8933C31.9342 9.80626 32.0403 9.69566 32.121 9.56803C32.2017 9.44039 32.2554 9.2983 32.279 9.1501C32.3026 9.00191 32.2955 8.85061 32.2582 8.70512C32.2209 8.55963 32.1542 8.42288 32.062 8.30292C31.9697 8.18297 31.8538 8.08224 31.721 8.00665C31.5882 7.93106 31.4413 7.88215 31.2889 7.8628C31.1364 7.84344 30.9816 7.85403 30.8334 7.89395C30.6852 7.93386 30.5467 8.00229 30.426 8.09521C29.265 8.94473 28.4073 10.1291 27.9746 11.4806C27.5418 12.832 27.5559 14.2821 28.0149 15.6253C28.4738 16.9685 29.3544 18.1368 30.5318 18.9647C31.7091 19.7925 33.1237 20.238 34.575 20.238Z" fill="#FE7A00"/>
  <path d="M16.135 46.0977C17.0468 46.0977 17.9381 45.8339 18.6962 45.3398C19.4543 44.8456 20.0452 44.1432 20.3941 43.3214C20.743 42.4996 20.8343 41.5954 20.6564 40.723C20.4786 39.8506 20.0395 39.0492 19.3948 38.4203C18.7501 37.7913 17.9286 37.363 17.0344 37.1894C16.1401 37.0159 15.2132 37.105 14.3709 37.4454C13.5285 37.7858 12.8085 38.3622 12.3019 39.1018C11.7954 39.8414 11.525 40.7109 11.525 41.6004C11.5264 42.7927 12.0125 43.9359 12.8768 44.779C13.741 45.6221 14.9128 46.0964 16.135 46.0977ZM16.135 39.3517C16.5909 39.3517 17.0366 39.4836 17.4156 39.7307C17.7947 39.9778 18.0901 40.3289 18.2646 40.7398C18.439 41.1507 18.4847 41.6029 18.3957 42.0391C18.3068 42.4753 18.0873 42.8759 17.7649 43.1904C17.4425 43.5049 17.0318 43.7191 16.5847 43.8058C16.1376 43.8926 15.6741 43.8481 15.2529 43.6779C14.8318 43.5077 14.4718 43.2195 14.2185 42.8497C13.9652 42.4799 13.83 42.0451 13.83 41.6004C13.8307 41.0042 14.0738 40.4326 14.5059 40.0111C14.9381 39.5895 15.5239 39.3524 16.135 39.3517Z" fill="black"/>
  <path d="M16.1351 32.6056C16.9125 32.6059 17.6773 32.4143 18.3584 32.0487C19.0395 31.683 19.6147 31.1553 20.0305 30.5145C20.4463 29.8737 20.6891 29.1407 20.7365 28.3837C20.7838 27.6267 20.6341 26.8703 20.3012 26.1849L23.7875 23.3504C24.0223 23.1594 24.1698 22.8853 24.1975 22.5884C24.2251 22.2914 24.1307 21.9958 23.935 21.7667C23.7393 21.5377 23.4584 21.3938 23.1539 21.3668C22.8495 21.3398 22.5466 21.4319 22.3117 21.6228L18.8235 24.4587C18.217 24.0319 17.513 23.7559 16.7724 23.6546C16.0319 23.5532 15.2772 23.6295 14.5737 23.877C14.3829 23.7193 14.1446 23.6266 13.8949 23.6128C13.6453 23.5989 13.3978 23.6648 13.1899 23.8003C12.982 23.9358 12.8249 24.1337 12.7425 24.364C12.6601 24.5944 12.6568 24.8446 12.733 25.0769C12.1296 25.7204 11.7311 26.5213 11.5861 27.382C11.4412 28.2426 11.556 29.1258 11.9166 29.9239C12.2773 30.722 12.8681 31.4004 13.6171 31.8766C14.3662 32.3528 15.241 32.6061 16.1351 32.6056ZM16.1351 25.8596C16.4059 25.8603 16.6746 25.9079 16.9284 26.0001L16.3826 26.444L15.9884 25.8677C16.0372 25.8638 16.0855 25.8596 16.1351 25.8596ZM14.0706 27.1142L15.1762 28.732C15.2659 28.8632 15.3829 28.9746 15.5196 29.0588C15.6563 29.1431 15.8096 29.1983 15.9697 29.2209C16.0244 29.2287 16.0797 29.2326 16.1351 29.2326C16.4047 29.2326 16.6658 29.1404 16.8729 28.972L18.4043 27.727C18.4674 28.0772 18.4445 28.437 18.3374 28.7769C18.2303 29.1168 18.0422 29.427 17.7883 29.6822C17.5345 29.9374 17.2223 30.1302 16.8772 30.2449C16.5322 30.3595 16.1642 30.3927 15.8035 30.3417C15.4428 30.2907 15.0996 30.1569 14.8021 29.9515C14.5047 29.746 14.2614 29.4746 14.0923 29.1596C13.9232 28.8446 13.833 28.495 13.8293 28.1395C13.8255 27.7839 13.9082 27.4325 14.0706 27.1142Z" fill="black"/>
  <path d="M26.5075 30.3569H31.1175C31.4231 30.3569 31.7163 30.2385 31.9324 30.0276C32.1486 29.8168 32.27 29.5308 32.27 29.2326C32.27 28.9344 32.1486 28.6484 31.9324 28.4376C31.7163 28.2267 31.4231 28.1083 31.1175 28.1083H26.5075C26.2018 28.1083 25.9087 28.2267 25.6925 28.4376C25.4764 28.6484 25.355 28.9344 25.355 29.2326C25.355 29.5308 25.4764 29.8168 25.6925 30.0276C25.9087 30.2385 26.2018 30.3569 26.5075 30.3569Z" fill="black"/>
  <path d="M35.7275 30.3569H47.2525C47.5581 30.3569 47.8513 30.2385 48.0674 30.0276C48.2835 29.8168 48.405 29.5308 48.405 29.2326C48.405 28.9344 48.2835 28.6484 48.0674 28.4376C47.8513 28.2267 47.5581 28.1083 47.2525 28.1083H35.7275C35.4218 28.1083 35.1286 28.2267 34.9125 28.4376C34.6964 28.6484 34.575 28.9344 34.575 29.2326C34.575 29.5308 34.6964 29.8168 34.9125 30.0276C35.1286 30.2385 35.4218 30.3569 35.7275 30.3569Z" fill="black"/>
  <path d="M26.5075 34.8544H35.7275C36.0331 34.8544 36.3263 34.7359 36.5424 34.5251C36.7586 34.3142 36.88 34.0282 36.88 33.73C36.88 33.4319 36.7586 33.1459 36.5424 32.935C36.3263 32.7242 36.0331 32.6057 35.7275 32.6057H26.5075C26.2018 32.6057 25.9087 32.7242 25.6925 32.935C25.4764 33.1459 25.355 33.4319 25.355 33.73C25.355 34.0282 25.4764 34.3142 25.6925 34.5251C25.9087 34.7359 26.2018 34.8544 26.5075 34.8544Z" fill="black"/>
  <path d="M26.5075 41.6004H47.2525C47.5581 41.6004 47.8513 41.4819 48.0674 41.271C48.2836 41.0602 48.405 40.7742 48.405 40.476C48.405 40.1778 48.2836 39.8918 48.0674 39.681C47.8513 39.4701 47.5581 39.3517 47.2525 39.3517H26.5075C26.2018 39.3517 25.9087 39.4701 25.6925 39.681C25.4764 39.8918 25.355 40.1778 25.355 40.476C25.355 40.7742 25.4764 41.0602 25.6925 41.271C25.9087 41.4819 26.2018 41.6004 26.5075 41.6004Z" fill="black"/>
  <path d="M26.5075 46.0977H31.1175C31.4231 46.0977 31.7163 45.9792 31.9324 45.7684C32.1486 45.5575 32.27 45.2715 32.27 44.9733C32.27 44.6751 32.1486 44.3892 31.9324 44.1783C31.7163 43.9675 31.4231 43.849 31.1175 43.849H26.5075C26.2018 43.849 25.9087 43.9675 25.6925 44.1783C25.4764 44.3892 25.355 44.6751 25.355 44.9733C25.355 45.2715 25.4764 45.5575 25.6925 45.7684C25.9087 45.9792 26.2018 46.0977 26.5075 46.0977Z" fill="black"/>
  <path d="M47.2525 43.849H36.88C36.5744 43.849 36.2812 43.9675 36.0651 44.1783C35.849 44.3892 35.7275 44.6751 35.7275 44.9733C35.7275 45.2715 35.849 45.5575 36.0651 45.7684C36.2812 45.9792 36.5744 46.0977 36.88 46.0977H47.2525C47.5582 46.0977 47.8513 45.9792 48.0675 45.7684C48.2836 45.5575 48.405 45.2715 48.405 44.9733C48.405 44.6751 48.2836 44.3892 48.0675 44.1783C47.8513 43.9675 47.5582 43.849 47.2525 43.849Z" fill="black"/>
  <path d="M40.3376 32.6057C40.0319 32.6057 39.7388 32.7242 39.5226 32.935C39.3065 33.1459 39.1851 33.4319 39.1851 33.73C39.1851 34.0282 39.3065 34.3142 39.5226 34.5251C39.7388 34.7359 40.0319 34.8544 40.3376 34.8544H43.7951C44.1007 34.8544 44.3939 34.7359 44.61 34.5251C44.8261 34.3142 44.9476 34.0282 44.9476 33.73C44.9476 33.4319 44.8261 33.1459 44.61 32.935C44.3939 32.7242 44.1007 32.6057 43.7951 32.6057H40.3376Z" fill="black"/>
</svg>
