<svg width="71" height="70" viewBox="0 0 71 70" fill="none" xmlns="http://www.w3.org/2000/svg">
  <g clip-path="url(#clip0)">
    <path d="M59.6017 11.0273C53.0057 4.81304 44.1496 1.4098 34.9817 1.56606C34.3658 1.57655 33.8753 2.07216 33.886 2.67296L34.0417 11.3762C34.0525 11.977 34.5605 12.4557 35.1763 12.4452C35.7921 12.4347 36.2827 11.9391 36.2719 11.3383L36.136 3.74139C53.9956 4.03795 68.2272 18.4037 67.9232 35.8281C67.6192 53.2525 52.8946 67.1373 35.035 66.8408C17.1754 66.5441 2.94386 52.1783 3.24784 34.754C3.38721 26.763 6.62952 19.1212 12.32 13.3721C12.7401 12.9327 12.7155 12.2441 12.265 11.8343C11.8257 11.4345 11.1406 11.4462 10.7158 11.8607C-2.54791 25.2612 -2.16545 46.6149 11.5698 59.5553C25.305 72.4958 47.192 72.1227 60.4557 58.7221C73.7194 45.3216 73.3369 23.9678 59.6017 11.0273Z" fill="black"/>
    <path d="M35.5072 30.9397C34.7135 30.957 33.9394 31.1833 33.2669 31.5948L17.1053 16.3681C16.6548 15.9583 15.9491 15.9823 15.529 16.4217C15.1192 16.8504 15.1312 17.5188 15.5561 17.9332L31.7177 33.16C31.3196 33.8301 31.1148 34.5927 31.1247 35.3673C31.1677 37.7706 33.1995 39.6849 35.6629 39.6429C38.1263 39.601 40.0884 37.6187 40.0454 35.2153C40.0024 32.812 37.9706 30.8977 35.5072 30.9397ZM35.624 37.4671C34.3922 37.4881 33.3764 36.531 33.3549 35.3293C33.3334 34.1276 34.3144 33.1365 35.5461 33.1155C36.7779 33.0945 37.7937 34.0516 37.8152 35.2533C37.8367 36.4551 36.8557 37.4462 35.624 37.4671Z" fill="#FE7A00"/>
  </g>
  <defs>
    <clipPath id="clip0">
      <rect width="69.1451" height="67.4612" fill="white" transform="matrix(0.999855 -0.0170273 0.0178882 0.99984 0.414795 2.15472)"/>
    </clipPath>
  </defs>
</svg>