<svg width="71" height="68" viewBox="0 0 71 68" fill="none" xmlns="http://www.w3.org/2000/svg">
  <path d="M67.9188 32.69H66.8384V26.1842C66.8384 23.9791 65.9589 21.9068 64.361 20.3499C62.7631 18.7909 60.639 17.9329 58.3799 17.9329H57.1148V16.7924C59.6937 15.3315 61.4364 12.6141 61.4364 9.50034C61.4364 4.85082 57.5588 1.06775 52.7932 1.06775C48.0275 1.06775 44.15 4.85082 44.15 9.50034C44.15 12.613 45.8927 15.3315 48.4716 16.7924V17.9329H47.2064C44.9473 17.9329 42.8232 18.7909 41.2253 20.3499C39.6274 21.9078 38.748 23.9791 38.748 26.1842V32.69H36.5872V29.5277C36.5872 28.9448 36.1031 28.4737 35.5068 28.4737H32.2656V28.1121C32.2656 25.0384 33.3287 22.126 35.2766 19.766C35.6785 19.9399 36.1204 20.0411 36.5872 20.0411C38.3741 20.0411 39.8284 18.6223 39.8284 16.8789C39.8284 15.1354 38.3741 13.7166 36.5872 13.7166C34.8002 13.7166 33.346 15.1354 33.346 16.8789C33.346 17.3932 33.4843 17.8707 33.7079 18.3008C31.3753 21.0593 30.1048 24.4903 30.1048 28.1121V28.4737H26.8636C26.2672 28.4737 25.7832 28.9448 25.7832 29.5277V32.69H24.7028C24.1064 32.69 23.6224 33.1611 23.6224 33.744V37.9603C23.6224 38.5432 24.1064 39.0144 24.7028 39.0144H25.7832V45.3388C22.8045 45.3388 20.3812 47.7031 20.3812 50.6092C20.3812 52.1745 21.0985 53.5669 22.2124 54.5335C20.5205 55.2861 19.1171 56.551 18.2204 58.1311C17.3236 56.5521 15.9202 55.2872 14.2283 54.5335C15.3422 53.5669 16.0596 52.1745 16.0596 50.6092C16.0596 47.7031 13.6362 45.3388 10.6575 45.3388C7.67888 45.3388 5.25555 47.7031 5.25555 50.6092C5.25555 52.1745 5.97293 53.5669 7.08682 54.5335C4.09952 55.8627 2.01434 58.7973 2.01434 62.204V65.3662C2.01434 65.9492 2.49836 66.4203 3.09474 66.4203H48.4716C49.068 66.4203 49.552 65.9492 49.552 65.3662V64.3122H65.758C66.3544 64.3122 66.8384 63.841 66.8384 63.2581V39.0144H67.9188C68.5152 39.0144 68.9992 38.5432 68.9992 37.9603V33.744C68.9992 33.1611 68.5152 32.69 67.9188 32.69ZM36.5872 15.8248C37.1825 15.8248 37.6676 16.297 37.6676 16.8789C37.6676 17.4607 37.1825 17.9329 36.5872 17.9329C35.9919 17.9329 35.5068 17.4607 35.5068 16.8789C35.5068 16.297 35.9919 15.8248 36.5872 15.8248ZM64.6776 26.1842V32.69H62.5168V28.4737H60.356V32.69H53.8736V24.9088L56.6318 26.2538C56.7831 26.3286 56.9495 26.3655 57.1148 26.3655C57.2552 26.3655 57.3957 26.3392 57.5286 26.2854C57.8181 26.1684 58.0407 25.9344 58.1401 25.6456L59.9843 20.2487C61.0518 20.5217 62.0328 21.0593 62.8344 21.8414C64.0229 23.0009 64.6776 24.543 64.6776 26.1842ZM49.0118 20.0411L51.152 22.8249L49.1025 23.8252L47.8104 20.0411H49.0118ZM56.5746 20.0411H57.7771L56.4849 23.8252L54.4354 22.8249L56.5746 20.0411ZM52.7932 3.1759C55.9695 3.1759 58.6144 5.41791 59.1654 8.36405C57.1191 8.11107 55.2252 7.21932 53.7439 5.77419L53.5592 5.59289C53.154 5.1955 52.4345 5.1955 52.0293 5.59289L51.8457 5.77313C50.3633 7.21932 48.4694 8.11107 46.4231 8.36299C46.972 5.41791 49.6168 3.1759 52.7932 3.1759ZM46.3918 10.4985C48.7665 10.2688 50.9878 9.33169 52.7932 7.79274C54.5985 9.33063 56.8187 10.2688 59.1945 10.4985C58.703 13.5132 56.0192 15.8248 52.7932 15.8248C49.5671 15.8248 46.8834 13.5132 46.3918 10.4985ZM52.7932 17.9329C53.5408 17.9329 54.2614 17.8307 54.954 17.6557V18.636L52.7932 21.4462L50.6324 18.636V17.6557C51.3249 17.8307 52.0455 17.9329 52.7932 17.9329ZM40.9088 26.1842C40.9088 24.543 41.5635 22.9999 42.753 21.8404C43.5547 21.0593 44.5357 20.5207 45.6031 20.2477L47.4473 25.6445C47.5467 25.9333 47.7693 26.1674 48.0589 26.2844C48.1907 26.3392 48.3311 26.3655 48.4716 26.3655C48.6369 26.3655 48.8032 26.3286 48.9545 26.2548L51.7128 24.9088V32.69H45.2304V28.4737H43.0696V32.69H40.9088V26.1842ZM27.944 30.5818H34.4264V32.69H27.944V30.5818ZM22.542 50.6092C22.542 48.8658 23.9962 47.447 25.7832 47.447C27.5701 47.447 29.0244 48.8658 29.0244 50.6092C29.0244 52.3526 27.5701 53.7714 25.7832 53.7714C23.9962 53.7714 22.542 52.3526 22.542 50.6092ZM7.41635 50.6092C7.41635 48.8658 8.87057 47.447 10.6575 47.447C12.4445 47.447 13.8987 48.8658 13.8987 50.6092C13.8987 52.3526 12.4445 53.7714 10.6575 53.7714C8.87057 53.7714 7.41635 52.3526 7.41635 50.6092ZM4.17514 62.204C4.17514 58.7161 7.0825 55.8796 10.6575 55.8796C14.2326 55.8796 17.14 58.7161 17.14 62.204V64.3122H4.17514V62.204ZM19.3008 62.204C19.3008 58.7161 22.2081 55.8796 25.7832 55.8796C29.3582 55.8796 32.2656 58.7161 32.2656 62.204V64.3122H19.3008V62.204ZM47.3912 64.3122H34.4264V62.204C34.4264 58.7161 37.3337 55.8796 40.9088 55.8796C44.4838 55.8796 47.3912 58.7161 47.3912 62.204V64.3122ZM37.6676 50.6092C37.6676 48.8658 39.1218 47.447 40.9088 47.447C42.6957 47.447 44.15 48.8658 44.15 50.6092C44.15 52.3526 42.6957 53.7714 40.9088 53.7714C39.1218 53.7714 37.6676 52.3526 37.6676 50.6092ZM64.6776 62.204H49.552C49.552 58.7973 47.4668 55.8627 44.4795 54.5335C45.5934 53.5669 46.3108 52.1745 46.3108 50.6092C46.3108 47.7031 43.8874 45.3388 40.9088 45.3388C37.9301 45.3388 35.5068 47.7031 35.5068 50.6092C35.5068 52.1745 36.2241 53.5669 37.338 54.5335C35.6461 55.2861 34.2427 56.551 33.346 58.1311C32.4492 56.5521 31.0458 55.2872 29.3539 54.5335C30.4678 53.5669 31.1852 52.1745 31.1852 50.6092C31.1852 48.4536 29.8487 46.6016 27.944 45.7858V39.0144H64.6776V62.204ZM66.8384 36.9063H25.7832V34.7981H66.8384V36.9063Z" fill="black"/>
  <path d="M5.25554 22.1492H22.542C24.3289 22.1492 25.7832 20.7304 25.7832 18.987V17.3152L29.7882 13.4078C30.2106 12.9957 30.2106 12.3295 29.7882 11.9173L25.7832 8.00989V6.33812C25.7832 4.59469 24.3289 3.1759 22.542 3.1759H5.25554C3.46856 3.1759 2.01434 4.59469 2.01434 6.33812V18.987C2.01434 20.7304 3.46856 22.1492 5.25554 22.1492ZM4.17514 6.33812C4.17514 5.75628 4.66024 5.28405 5.25554 5.28405H22.542C23.1373 5.28405 23.6224 5.75628 23.6224 6.33812V8.44627C23.6224 8.72666 23.7358 8.99439 23.9389 9.1915L27.4967 12.6626L23.9389 16.1336C23.7358 16.3307 23.6224 16.5985 23.6224 16.8789V18.987C23.6224 19.5689 23.1373 20.0411 22.542 20.0411H5.25554C4.66024 20.0411 4.17514 19.5689 4.17514 18.987V6.33812Z" fill="#FE7A00"/>
  <path d="M6.33594 7.39221H21.4615V9.50036H6.33594V7.39221Z" fill="#FE7A00"/>
  <path d="M6.33594 15.8248H21.4615V17.933H6.33594V15.8248Z" fill="#FE7A00"/>
  <path d="M8.49677 11.6085H19.3008V13.7167H8.49677V11.6085Z" fill="#FE7A00"/>
</svg>
