<svg width="59" height="59" viewBox="0 0 59 59" fill="none" xmlns="http://www.w3.org/2000/svg">
  <g clip-path="url(#clip0)">
    <path d="M47.4687 17.1328L30.3984 0.421714C29.9862 -0.0744112 29.2498 -0.14251 28.7537 0.269523C28.6985 0.315438 28.6474 0.36634 28.6015 0.421714L11.5312 17.1328C10.9854 17.6387 10.9531 18.4915 11.459 19.0373C11.7099 19.308 12.0607 19.464 12.4298 19.4688H20.5156V41.1212C20.669 42.026 21.4009 42.7213 22.3125 42.8283H36.6876C37.4064 42.8283 37.586 41.9299 37.586 41.1212V19.4688H46.5704C47.3146 19.459 47.91 18.8478 47.9002 18.1035C47.8954 17.7345 47.7394 17.3837 47.4687 17.1328Z" fill="black"/>
    <path d="M36.6874 45.5234H22.3123C21.568 45.5234 20.9646 46.1269 20.9646 46.8711C20.9646 47.6154 21.568 48.2188 22.3123 48.2188H36.6874C37.4316 48.2188 38.0351 47.6154 38.0351 46.8711C38.0351 46.1269 37.4318 45.5234 36.6874 45.5234Z" fill="black"/>
    <path d="M36.6874 50.9141H22.3123C21.568 50.9141 20.9646 51.5175 20.9646 52.2618C20.9646 53.0061 21.568 53.6095 22.3123 53.6095H36.6874C37.4316 53.6095 38.0351 53.0061 38.0351 52.2618C38.0351 51.5175 37.4318 50.9141 36.6874 50.9141Z" fill="black"/>
    <path d="M36.6874 56.3046H22.3123C21.568 56.3046 20.9646 56.908 20.9646 57.6523C20.9646 58.3965 21.568 59 22.3123 59H36.6874C37.4316 59 38.0351 58.3965 38.0351 57.6523C38.0351 56.908 37.4318 56.3046 36.6874 56.3046Z" fill="black"/>
  </g>
  <defs>
    <clipPath id="clip0">
      <rect width="59" height="59" fill="white"/>
    </clipPath>
  </defs>
</svg>