<svg width="31" height="31" viewBox="0 0 31 31" fill="none" xmlns="http://www.w3.org/2000/svg">
<g clip-path="url(#clip0)">
<path d="M14.6342 0.197676C14.3666 -0.0608466 13.9401 -0.0533935 13.6816 0.214225C13.4294 0.475337 13.4294 0.889239 13.6816 1.15029L28.0266 15.4967L13.6802 29.8418C13.4126 30.1003 13.4052 30.5268 13.6637 30.7944C13.9222 31.0621 14.3487 31.0695 14.6164 30.811C14.622 30.8056 14.6275 30.8001 14.6329 30.7944L29.455 15.9724C29.718 15.7093 29.718 15.2828 29.455 15.0197L14.6342 0.197676Z" fill="#009688"/>
<path d="M17.3293 15.0198L2.50719 0.197676C2.23957 -0.0608466 1.81304 -0.0533935 1.55452 0.214225C1.30237 0.475337 1.30237 0.889239 1.55452 1.15035L15.8996 15.4968L1.55319 29.8418C1.28557 30.1003 1.27818 30.5268 1.53664 30.7944C1.79516 31.0621 2.22164 31.0695 2.48932 30.811C2.49494 30.8056 2.50043 30.8001 2.50587 30.7944L17.3279 15.9724C17.5913 15.7097 17.5919 15.2832 17.3293 15.0198Z" fill="#009688"/>
<path d="M14.1575 30.9924C13.7854 30.9931 13.4832 30.6919 13.4825 30.3198C13.4822 30.1405 13.5535 29.9683 13.6805 29.8416L28.0269 15.4966L13.6805 1.15155C13.422 0.88393 13.4294 0.457396 13.697 0.198873C13.9582 -0.0532702 14.3721 -0.0532702 14.6331 0.198873L29.4552 15.021C29.7182 15.284 29.7182 15.7105 29.4552 15.9736L14.6332 30.7956C14.5069 30.9217 14.3359 30.9924 14.1575 30.9924Z" fill="#FE7A00"/>
<path d="M2.03024 30.9924C1.65815 30.9931 1.35598 30.692 1.35529 30.3199C1.35497 30.1405 1.42622 29.9684 1.55324 29.8417L15.8996 15.4966L1.55324 1.15159C1.28979 0.888139 1.28979 0.461037 1.55324 0.197587C1.81669 -0.0658624 2.24379 -0.0658624 2.50724 0.197587L17.3293 15.0197C17.5923 15.2827 17.5923 15.7092 17.3293 15.9723L2.50724 30.7944C2.38085 30.9211 2.20924 30.9924 2.03024 30.9924Z" fill="black"/>
</g>
<defs>
<clipPath id="clip0">
<rect width="31" height="31" fill="white"/>
</clipPath>
</defs>
</svg>
