<svg width="31" height="33" viewBox="0 0 31 33" fill="none" xmlns="http://www.w3.org/2000/svg">
<g clip-path="url(#clip0)">
<path d="M16.3657 0.835486C16.6333 0.572802 17.0599 0.580375 17.3184 0.852301C17.5705 1.11762 17.5705 1.53818 17.3184 1.80343L2.97331 16.3808L17.3197 30.9568C17.5873 31.2195 17.5948 31.6528 17.3363 31.9248C17.0777 32.1967 16.6513 32.2042 16.3836 31.9416C16.378 31.9361 16.3725 31.9305 16.367 31.9248L1.54496 16.8641C1.28195 16.5968 1.28195 16.1635 1.54496 15.8961L16.3657 0.835486Z" fill="#009688"/>
<path d="M13.6707 15.8962L28.4927 0.835486C28.7604 0.572802 29.1869 0.580375 29.4454 0.852301C29.6976 1.11762 29.6976 1.53818 29.4454 1.8035L15.1003 16.3808L29.4467 30.9568C29.7144 31.2195 29.7218 31.6528 29.4633 31.9248C29.2048 32.1967 28.7783 32.2042 28.5106 31.9416C28.505 31.9361 28.4995 31.9305 28.4941 31.9248L13.672 16.8641C13.4087 16.5972 13.408 16.1639 13.6707 15.8962Z" fill="#009688"/>
<path d="M16.8426 32.1259C17.2147 32.1266 17.5169 31.8206 17.5176 31.4425C17.5179 31.2603 17.4466 31.0854 17.3196 30.9566L2.97322 16.3806L17.3196 1.80469C17.5781 1.53277 17.5707 1.09937 17.3031 0.836683C17.042 0.580481 16.6281 0.580481 16.367 0.836683L1.54493 15.8974C1.28192 16.1647 1.28192 16.598 1.54493 16.8654L16.367 31.926C16.4932 32.054 16.6643 32.1259 16.8426 32.1259Z" fill="#FE7A00"/>
<path d="M28.9695 32.1261C29.3416 32.1268 29.6438 31.8208 29.6445 31.4427C29.6448 31.2605 29.5735 31.0856 29.4465 30.9568L15.1001 16.3808L29.4465 1.80489C29.71 1.5372 29.71 1.10322 29.4465 0.835533C29.1831 0.567843 28.756 0.567843 28.4925 0.835533L13.6704 15.8962C13.4074 16.1635 13.4074 16.5969 13.6704 16.8642L28.4925 31.9248C28.6189 32.0536 28.7905 32.1261 28.9695 32.1261Z" fill="black"/>
</g>
<defs>
<clipPath id="clip0">
<rect width="31" height="31.499" fill="white" transform="matrix(-1 0 0 1 31 0.634766)"/>
</clipPath>
</defs>
</svg>
