<svg width="59" height="59" viewBox="0 0 59 59" fill="none" xmlns="http://www.w3.org/2000/svg">
<g clip-path="url(#clip0)">
<path d="M58.0172 2.57444e-08C58.017 2.57444e-08 58.0168 2.57444e-08 58.0167 2.57444e-08H0.983333C0.44041 -0.000122891 0.000122917 0.439919 0 0.982842C0 0.982965 0 0.98321 0 0.983333V20.65H1.96667V1.96667H57.0333V23.6H22.6167V25.5667H58.0167C58.5596 25.5668 58.9999 25.1267 59 24.5838C59 24.5837 59 24.5835 59 24.5833V0.983333C59.0001 0.44041 58.5601 0.000122942 58.0172 2.57444e-08Z" fill="black"/>
<path d="M52.1166 4.91666H32.45V6.88332H52.1166V4.91666Z" fill="black"/>
<path d="M55.0666 10.8167H35.3999V12.7833H55.0666V10.8167Z" fill="black"/>
<path d="M51.1333 16.7167H31.4667V18.6833H51.1333V16.7167Z" fill="black"/>
<path d="M31.3882 8.47807C30.715 6.85987 28.8575 6.09386 27.2394 6.76707C27.2118 6.77863 27.1842 6.79043 27.157 6.80272L19.1836 10.9389C19.498 10.2872 19.6631 9.5735 19.6667 8.85002C19.6667 6.13466 17.4654 3.93335 14.75 3.93335C12.0346 3.93335 9.83333 6.13466 9.83333 8.85002C9.83702 9.9173 10.1914 10.9539 10.8419 11.8H10.8009C8.00974 11.8187 5.5181 13.5539 4.53267 16.1655L1.90767 25.2133C1.28276 26.8365 2.09204 28.6591 3.7154 29.2841C4.45561 29.569 5.27607 29.5642 6.01296 29.2705C6.85961 28.9294 7.51844 28.2406 7.82168 27.3797L8.85 24.107V38.3387C8.00384 37.6884 6.96729 37.334 5.9 37.3302C3.1887 37.3261 0.98739 39.5208 0.983333 42.2322C0.981367 43.5601 1.51728 44.832 2.46903 45.7581C0.958627 46.5298 0.00590003 48.0805 2.57444e-08 49.7765V58.0167C-0.000122891 58.5596 0.439919 58.9999 0.982842 59C0.982965 59 0.98321 59 0.983333 59H10.8167C11.3596 59.0001 11.7999 58.5601 11.8 58.0172C11.8 58.0171 11.8 58.0168 11.8 58.0167V49.7765C11.7952 48.3827 11.1477 47.0692 10.0452 46.2167H17.4882C16.3857 47.0692 15.7381 48.3827 15.7335 49.7765V58.0167C15.7333 58.5596 16.1734 58.9999 16.7163 59C16.7164 59 16.7167 59 16.7168 59H26.5501C27.093 59.0001 27.5333 58.5601 27.5335 58.0172C27.5335 58.0171 27.5335 58.0168 27.5335 58.0167V49.7765C27.5276 48.0805 26.5748 46.5298 25.0644 45.7581C27.0059 43.8631 27.0436 40.7529 25.1486 38.8115C23.9817 37.6158 22.287 37.0953 20.6501 37.4296V17.3139L29.6772 12.6268C31.2953 11.9537 32.0613 10.0961 31.3882 8.47807ZM14.75 5.90002C16.3793 5.90002 17.7 7.22076 17.7 8.85002C17.7 10.4793 16.3793 11.8 14.75 11.8C13.1215 11.7983 11.8017 10.4785 11.8 8.85002C11.8 7.22076 13.1207 5.90002 14.75 5.90002ZM5.9 39.2968C7.52926 39.2968 8.85 40.6176 8.85 42.2468C8.85 43.8761 7.52926 45.1968 5.9 45.1968C4.27074 45.1968 2.95 43.8761 2.95 42.2468C2.95172 40.6183 4.27148 39.2987 5.9 39.2968ZM9.83333 57.0334H1.96667V49.7765C1.96863 48.3542 3.12122 47.2017 4.54361 47.2H7.25638C8.67865 47.2017 9.83137 48.3542 9.83333 49.7765V57.0334ZM25.5667 49.7765V57.0334H17.7V49.7765C17.702 48.3542 18.8546 47.2017 20.2769 47.2H22.9897C24.4121 47.2017 25.5647 48.3542 25.5667 49.7765ZM21.6333 39.2968C23.2619 39.2986 24.5816 40.6183 24.5833 42.2468C24.5833 43.8761 23.2626 45.1968 21.6333 45.1968C20.0041 45.1968 18.6833 43.8761 18.6833 42.2468C18.6833 40.6176 20.0041 39.2968 21.6333 39.2968ZM29.5889 10.1185C29.4572 10.4563 29.1869 10.7214 28.8466 10.8464L19.214 15.8437C18.888 16.0129 18.6833 16.3495 18.6833 16.7167V38.3387C16.8414 39.7006 16.2034 42.1655 17.1533 44.25H15.7333V27.5334H13.7667V44.25H10.3801C10.6598 43.6318 10.8072 42.9619 10.813 42.2834H10.8167V17.7C10.8165 17.1568 10.3761 16.7167 9.83309 16.7168C9.40374 16.7169 9.02405 16.9956 8.89523 17.4053L5.959 26.7488C5.73652 27.3624 5.05863 27.6795 4.44503 27.4569C4.40201 27.4413 4.35985 27.4232 4.3188 27.4027C3.75154 27.1095 3.51075 26.4251 3.76961 25.8413L6.39449 16.7935C7.10237 14.9756 8.84988 13.7752 10.8008 13.7667H17.7634C17.921 13.7669 18.0764 13.7289 18.2162 13.6563L27.9896 8.58317C28.5759 8.33856 29.2517 8.58882 29.5371 9.15645C29.6884 9.45563 29.7072 9.80471 29.5889 10.1185Z" fill="black"/>
<path d="M40.7976 45.7581C42.7426 43.8632 42.7831 40.7503 40.8882 38.8054C38.9934 36.8605 35.8805 36.8199 33.9356 38.7148C31.9907 40.6097 31.9501 43.7226 33.845 45.6675C33.8749 45.6981 33.9051 45.7283 33.9357 45.7581C32.4254 46.5297 31.4726 48.0804 31.4667 49.7764V58.0167C31.4666 58.5596 31.9066 58.9999 32.4495 59C32.4496 59 32.4499 59 32.45 59H42.2833C42.8263 59.0001 43.2665 58.5601 43.2667 58.0171C43.2667 58.017 43.2667 58.0168 43.2667 58.0167V49.7764C43.2608 48.0804 42.308 46.5297 40.7976 45.7581ZM37.3667 39.2968C38.9959 39.2968 40.3167 40.6176 40.3167 42.2468C40.3167 43.8761 38.9959 45.1968 37.3667 45.1968C35.7374 45.1968 34.4167 43.8761 34.4167 42.2468C34.4184 40.6183 35.7382 39.2987 37.3667 39.2968ZM41.3 57.0333H33.4333V49.7764C33.4353 48.3542 34.5879 47.2017 36.0103 47.2H38.7231C40.1453 47.2017 41.298 48.3542 41.3 49.7764V57.0333Z" fill="black"/>
<path d="M56.5309 45.7581C58.4758 43.8632 58.5164 40.7503 56.6215 38.8054C54.7266 36.8605 51.6138 36.8199 49.6689 38.7148C47.7239 40.6097 47.6834 43.7226 49.5783 45.6675C49.6081 45.6981 49.6384 45.7283 49.669 45.7581C48.1587 46.5297 47.2059 48.0804 47.2 49.7764V58.0167C47.1998 58.5596 47.6399 58.9999 48.1828 59C48.1829 59 48.1832 59 48.1833 59H58.0166C58.5595 59.0001 58.9998 58.5601 59 58.0171C59 58.017 59 58.0168 59 58.0167V49.7764C58.9941 48.0804 58.0413 46.5297 56.5309 45.7581ZM53.1 39.2968C54.7292 39.2968 56.05 40.6176 56.05 42.2468C56.05 43.8761 54.7292 45.1968 53.1 45.1968C51.4707 45.1968 50.15 43.8761 50.15 42.2468C50.1517 40.6183 51.4714 39.2987 53.1 39.2968ZM57.0333 57.0333H49.1666V49.7764C49.1686 48.3542 50.3212 47.2017 51.7436 47.2H54.4563C55.8786 47.2017 57.0313 48.3542 57.0333 49.7764V57.0333Z" fill="black"/>
</g>
<defs>
<clipPath id="clip0">
<rect width="59" height="59" fill="white"/>
</clipPath>
</defs>
</svg>
