<svg width="59" height="59" viewBox="0 0 59 59" fill="none" xmlns="http://www.w3.org/2000/svg">
<path d="M47.9747 13.8557C47.4974 13.8557 47.1105 14.2426 47.1105 14.7199V53.5172C47.1105 53.5501 47.0838 53.5767 47.051 53.5767H16.5678C16.0904 53.5767 15.7035 53.9637 15.7035 54.441C15.7035 54.9183 16.0904 55.3052 16.5678 55.3052H47.051C48.0369 55.3052 48.839 54.5032 48.839 53.5172V14.7199C48.839 14.2426 48.452 13.8557 47.9747 13.8557Z" fill="black"/>
<path d="M50.7459 3.69488H42.7902L39.8896 0.794312C39.3774 0.282094 38.6965 0 37.9721 0H8.25404C7.2681 0 6.46606 0.802033 6.46606 1.78798V53.5171C6.46606 54.5031 7.2681 55.3051 8.25404 55.3051H10.1609V57.212C10.1609 58.198 10.963 59 11.9489 59H50.7459C51.7318 59 52.5339 58.198 52.5339 57.212V5.48298C52.5339 4.49703 51.7318 3.69488 50.7459 3.69488ZM38.6778 2.02698L46.8119 10.161H38.7373C38.7044 10.161 38.6778 10.1344 38.6778 10.1016V2.02698ZM50.8053 57.2121C50.8053 57.245 50.7787 57.2716 50.7459 57.2716H11.9489C11.9161 57.2716 11.8895 57.245 11.8895 57.2121V55.3052H12.8724C13.3497 55.3052 13.7367 54.9183 13.7367 54.441C13.7367 53.9637 13.3497 53.5767 12.8724 53.5767H8.25404C8.2212 53.5767 8.19458 53.5501 8.19458 53.5173V1.78798C8.19458 1.75514 8.2212 1.72852 8.25404 1.72852H36.9493V10.1016C36.9493 11.0875 37.7513 11.8896 38.7373 11.8896H47.9747C48.452 11.8896 48.839 11.5026 48.839 11.0253V10.8669C48.839 10.1426 48.5569 9.46157 48.0447 8.94935L44.5187 5.4234H50.7459C50.7787 5.4234 50.8053 5.45002 50.8053 5.48286V57.2121Z" fill="black"/>
<path d="M23.6449 9.87317C23.3074 9.53565 22.7601 9.53565 22.4227 9.87317L17.5334 14.7625C17.5102 14.7856 17.4725 14.7856 17.4493 14.7625L15.5002 12.8134H17.0006C17.4779 12.8134 17.8648 12.4264 17.8648 11.9491C17.8648 11.4718 17.4779 11.0849 17.0006 11.0849H14.7201C14.4438 11.0849 14.1829 11.1497 13.9489 11.2622L13.4837 10.797C13.1462 10.4595 12.599 10.4595 12.2616 10.797C11.924 11.1345 11.924 11.6818 12.2616 12.0192L12.941 12.6986C12.9355 12.7559 12.9322 12.814 12.9322 12.8727V18.4152C12.9322 19.4011 13.7343 20.2031 14.7202 20.2031H20.2627C21.2486 20.2031 22.0506 19.4011 22.0506 18.4152V12.6896L23.6449 11.0953C23.9824 10.7578 23.9824 10.2106 23.6449 9.87317ZM20.3221 18.4153C20.3221 18.4481 20.2955 18.4747 20.2627 18.4747H14.7202C14.6874 18.4747 14.6608 18.4481 14.6608 18.4153V14.4181L16.2271 15.9845C16.5757 16.3331 17.0335 16.5075 17.4915 16.5075C17.9493 16.5075 18.4071 16.3331 18.7557 15.9845L20.3221 14.4181V18.4153Z" fill="black"/>
<path d="M20.2625 23.0933H14.7201C13.7342 23.0933 12.9321 23.8954 12.9321 24.8813V30.4237C12.9321 31.4097 13.7342 32.2117 14.7201 32.2117H20.2625C21.2485 32.2117 22.0505 31.4097 22.0505 30.4237V24.8813C22.0505 23.8955 21.2485 23.0933 20.2625 23.0933ZM20.322 30.4237C20.322 30.4566 20.2954 30.4832 20.2625 30.4832H14.7201C14.6873 30.4832 14.6606 30.4566 14.6606 30.4237V24.8813C14.6606 24.8485 14.6873 24.8218 14.7201 24.8218H20.2625C20.2954 24.8218 20.322 24.8485 20.322 24.8813V30.4237Z" fill="black"/>
<path d="M20.2625 35.1019H14.7201C13.7342 35.1019 12.9321 35.904 12.9321 36.8899V42.4324C12.9321 43.4183 13.7342 44.2203 14.7201 44.2203H20.2625C21.2485 44.2203 22.0505 43.4182 22.0505 42.4324V36.8899C22.0505 35.904 21.2485 35.1019 20.2625 35.1019ZM20.322 42.4324C20.322 42.4652 20.2954 42.4918 20.2625 42.4918H14.7201C14.6873 42.4918 14.6606 42.4651 14.6606 42.4324V36.8899C14.6606 36.8571 14.6873 36.8304 14.7201 36.8304H20.2625C20.2954 36.8304 20.322 36.8571 20.322 36.8899V42.4324Z" fill="black"/>
<path d="M34.1187 12.9323H25.8051C25.3278 12.9323 24.9408 13.3193 24.9408 13.7966C24.9408 14.2739 25.3276 14.6608 25.8051 14.6608H34.1187C34.596 14.6608 34.9829 14.2739 34.9829 13.7966C34.9829 13.3193 34.596 12.9323 34.1187 12.9323Z" fill="black"/>
<path d="M41.5085 16.6273H25.8051C25.3278 16.6273 24.9408 17.0143 24.9408 17.4916C24.9408 17.9689 25.3276 18.3558 25.8051 18.3558H41.5085C41.9858 18.3558 42.3728 17.9689 42.3728 17.4916C42.3728 17.0143 41.986 16.6273 41.5085 16.6273Z" fill="black"/>
<path d="M34.1187 24.9409H25.8051C25.3278 24.9409 24.9408 25.3279 24.9408 25.8052C24.9408 26.2825 25.3276 26.6694 25.8051 26.6694H34.1187C34.596 26.6694 34.9829 26.2825 34.9829 25.8052C34.9829 25.3279 34.596 24.9409 34.1187 24.9409Z" fill="black"/>
<path d="M41.5085 28.6358H25.8051C25.3278 28.6358 24.9408 29.0228 24.9408 29.5001C24.9408 29.9774 25.3276 30.3643 25.8051 30.3643H41.5085C41.9858 30.3643 42.3728 29.9774 42.3728 29.5001C42.3728 29.0228 41.986 28.6358 41.5085 28.6358Z" fill="black"/>
<path d="M34.1187 36.9494H25.8051C25.3278 36.9494 24.9408 37.3364 24.9408 37.8137C24.9408 38.291 25.3276 38.6779 25.8051 38.6779H34.1187C34.596 38.6779 34.9829 38.291 34.9829 37.8137C34.9829 37.3364 34.596 36.9494 34.1187 36.9494Z" fill="black"/>
<path d="M41.5085 40.6443H25.8051C25.3278 40.6443 24.9408 41.0312 24.9408 41.5085C24.9408 41.9858 25.3276 42.3728 25.8051 42.3728H41.5085C41.9858 42.3728 42.3728 41.9858 42.3728 41.5085C42.3728 41.0312 41.986 40.6443 41.5085 40.6443Z" fill="black"/>
</svg>
