<svg width="70" height="68" viewBox="0 0 70 68" fill="none" xmlns="http://www.w3.org/2000/svg">
<path d="M65.9045 13.703H62.6633V10.5408C62.6633 10.2612 62.5494 9.9931 62.3468 9.79543C62.1442 9.59775 61.8694 9.48669 61.5829 9.48669H38.8944C38.053 9.48987 37.2239 9.68502 36.4735 10.0566C35.7232 10.4281 35.0723 10.9657 34.5728 11.6265C34.0734 10.9657 33.4225 10.4281 32.6721 10.0566C31.9218 9.68502 31.0927 9.48987 30.2512 9.48669H7.56283C7.27629 9.48669 7.00149 9.59775 6.79887 9.79543C6.59626 9.9931 6.48243 10.2612 6.48243 10.5408V13.703H3.24123C2.95469 13.703 2.67988 13.814 2.47727 14.0117C2.27466 14.2094 2.16083 14.4775 2.16083 14.7571V56.92C2.16083 57.1996 2.27466 57.4677 2.47727 57.6654C2.67988 57.863 2.95469 57.9741 3.24123 57.9741H65.9045C66.191 57.9741 66.4658 57.863 66.6684 57.6654C66.871 57.4677 66.9849 57.1996 66.9849 56.92V14.7571C66.9849 14.4775 66.871 14.2094 66.6684 14.0117C66.4658 13.814 66.191 13.703 65.9045 13.703ZM4.32163 55.8659V15.8111H6.48243V52.7037C6.48243 52.9833 6.59626 53.2514 6.79887 53.4491C7.00149 53.6467 7.27629 53.7578 7.56283 53.7578H30.2512C30.9196 53.7612 31.5706 53.9653 32.1158 54.3425C32.6609 54.7198 33.0737 55.2517 33.298 55.8659H4.32163ZM33.4924 52.7353C32.5644 52.0346 31.4248 51.6528 30.2512 51.6496H8.64323V11.5948H30.2512C31.1101 11.5973 31.933 11.9313 32.5403 12.5238C33.1476 13.1163 33.4899 13.9192 33.4924 14.7571V52.7353ZM34.5728 53.7894L34.5404 53.7578H34.6053L34.5728 53.7894ZM35.6532 14.7571C35.6558 13.9192 35.9981 13.1163 36.6054 12.5238C37.2127 11.9313 38.0356 11.5973 38.8944 11.5948H60.5025V51.6496H38.8944C37.7209 51.6528 36.5813 52.0346 35.6532 52.7353V14.7571ZM64.8241 55.8659H35.8477C36.072 55.2517 36.4848 54.7198 37.0299 54.3425C37.5751 53.9653 38.2261 53.7612 38.8944 53.7578H61.5829C61.8694 53.7578 62.1442 53.6467 62.3468 53.4491C62.5494 53.2514 62.6633 52.9833 62.6633 52.7037V15.8111H64.8241V55.8659Z" fill="black"/>
<path d="M50.7788 13.7029C49.6327 13.7029 48.5334 14.1472 47.723 14.9379C46.9125 15.7286 46.4572 16.801 46.4572 17.9192V43.217C46.4573 43.4062 46.5095 43.5919 46.6085 43.7546L49.8497 49.025C49.9453 49.1823 50.0813 49.3125 50.2442 49.4031C50.4071 49.4936 50.5914 49.5411 50.7788 49.5411C50.9663 49.5411 51.1505 49.4936 51.3134 49.4031C51.4763 49.3125 51.6123 49.1823 51.708 49.025L54.9492 43.7546C55.0481 43.5919 55.1004 43.4062 55.1004 43.217V17.9192C55.1004 16.801 54.6451 15.7286 53.8346 14.9379C53.0242 14.1472 51.925 13.7029 50.7788 13.7029ZM50.7788 46.4425L48.9962 43.5332L50.7788 42.3738L52.5615 43.5332L50.7788 46.4425ZM52.9396 41.2459L51.8592 40.5397V26.3518H49.6984V40.5397L48.618 41.2459V24.2437H52.9396V41.2459ZM52.9396 22.1355H48.618V20.0274H52.9396V22.1355ZM48.618 17.9192C48.618 17.3601 48.8457 16.8239 49.2509 16.4286C49.6561 16.0332 50.2057 15.8111 50.7788 15.8111C51.3519 15.8111 51.9015 16.0332 52.3067 16.4286C52.712 16.8239 52.9396 17.3601 52.9396 17.9192H48.618Z" fill="#FE7A00"/>
<path d="M10.804 14.757H31.3316V16.8652H10.804V14.757Z" fill="black"/>
<path d="M10.804 18.9733H22.6884V21.0815H10.804V18.9733Z" fill="black"/>
<path d="M24.8492 18.9733H31.3316V21.0815H24.8492V18.9733Z" fill="black"/>
<path d="M10.804 23.1896H15.1256V25.2978H10.804V23.1896Z" fill="black"/>
<path d="M17.2864 23.1896H31.3316V25.2978H17.2864V23.1896Z" fill="black"/>
</svg>
