<svg width="35" height="35" viewBox="0 0 35 35" fill="none" xmlns="http://www.w3.org/2000/svg">
<g clip-path="url(#clip0)">
<path d="M24.8124 0H10.5128C4.93391 0 0.395142 4.53877 0.395142 10.1176V24.4172C0.395142 29.9961 4.93391 34.5349 10.5128 34.5349H24.8124C30.3912 34.5349 34.93 29.9961 34.93 24.4172V10.1176C34.93 4.53877 30.3912 0 24.8124 0ZM33.581 24.4172C33.581 29.2522 29.6474 33.1859 24.8124 33.1859H10.5128C5.67776 33.1859 1.74416 29.2522 1.74416 24.4172V10.1176C1.74416 5.28262 5.67776 1.34902 10.5128 1.34902H24.8124C29.6474 1.34902 33.581 5.28262 33.581 10.1176V24.4172Z" fill="black" fill-opacity="0.51"/>
<path d="M24.8124 2.96783H10.5128C6.57033 2.96783 3.36298 6.17519 3.36298 10.1176V24.4172C3.36298 28.3597 6.57033 31.567 10.5128 31.567H14.6273C14.9998 31.567 15.3018 31.265 15.3018 30.8925C15.3018 30.52 14.9998 30.218 14.6273 30.218H10.5128C7.31425 30.218 4.71199 27.6157 4.71199 24.4172V10.1176C4.71199 6.91911 7.31425 4.31685 10.5128 4.31685H24.8124C28.0109 4.31685 30.6131 6.91911 30.6131 10.1176V24.4172C30.6131 27.6157 28.0109 30.218 24.8124 30.218H20.7429C20.3703 30.218 20.0683 30.52 20.0683 30.8925C20.0683 31.265 20.3703 31.567 20.7429 31.567H24.8124C28.7548 31.567 31.9622 28.3597 31.9622 24.4172V10.1176C31.9622 6.17519 28.7548 2.96783 24.8124 2.96783Z" fill="black" fill-opacity="0.51"/>
<path d="M18.1395 30.4156C18.014 30.2902 17.84 30.218 17.6626 30.218C17.4852 30.218 17.3112 30.2902 17.1857 30.4156C17.0603 30.5411 16.9881 30.7151 16.9881 30.8925C16.9881 31.0699 17.0603 31.2439 17.1857 31.3694C17.3112 31.4949 17.4852 31.567 17.6626 31.567C17.84 31.567 18.014 31.4949 18.1395 31.3694C18.2649 31.2439 18.3371 31.0699 18.3371 30.8925C18.3371 30.7151 18.2649 30.5411 18.1395 30.4156Z" fill="black" fill-opacity="0.51"/>
<path d="M12.255 10.5028C12.0002 10.231 11.5734 10.2171 11.3015 10.4717L11.2717 10.4998C11.0007 10.7555 10.9883 11.1824 11.244 11.4533C11.3767 11.5939 11.5555 11.6649 11.7347 11.6649C11.9008 11.6649 12.0672 11.6039 12.1975 11.481L12.2239 11.4562C12.4957 11.2015 12.5097 10.7746 12.255 10.5028Z" fill="black" fill-opacity="0.51"/>
<path d="M17.6627 7.9592C16.1812 7.9592 14.7067 8.31608 13.3986 8.99126C13.0676 9.16212 12.9378 9.56898 13.1086 9.90003C13.2796 10.231 13.6864 10.3608 14.0174 10.19C15.1509 9.60486 16.3774 9.30822 17.6627 9.30822C22.0514 9.30822 25.6219 12.8787 25.6219 17.2674C25.6219 21.6561 22.0514 25.2266 17.6627 25.2266C13.274 25.2266 9.70345 21.6561 9.70345 17.2674C9.70345 15.8901 10.0606 14.5332 10.7363 13.3433C10.9203 13.0194 10.8068 12.6076 10.4828 12.4236C10.1589 12.2398 9.74723 12.3532 9.56322 12.6771C8.77242 14.0697 8.35443 15.657 8.35443 17.2674C8.35443 22.4 12.5301 26.5756 17.6627 26.5756C22.7952 26.5756 26.9709 22.4 26.9709 17.2674C26.9709 12.1349 22.7952 7.9592 17.6627 7.9592Z" fill="black" fill-opacity="0.51"/>
<path d="M17.6627 11.1969C14.3154 11.1969 11.5921 13.9201 11.5921 17.2675C11.5921 20.6148 14.3154 23.338 17.6627 23.338C21.01 23.338 23.7333 20.6148 23.7333 17.2675C23.7333 13.9201 21.01 11.1969 17.6627 11.1969ZM17.6627 21.989C15.0592 21.989 12.9411 19.8709 12.9411 17.2675C12.9411 14.664 15.0592 12.5459 17.6627 12.5459C20.2662 12.5459 22.3843 14.664 22.3843 17.2675C22.3843 19.8709 20.2662 21.989 17.6627 21.989Z" fill="black" fill-opacity="0.51"/>
<path d="M26.5155 5.85135C25.1022 5.85135 23.9523 7.00118 23.9523 8.41448C23.9523 9.82778 25.1022 10.9776 26.5155 10.9776C27.9288 10.9776 29.0786 9.82778 29.0786 8.41448C29.0786 7.00118 27.9288 5.85135 26.5155 5.85135ZM26.5155 9.6286C25.846 9.6286 25.3014 9.08393 25.3014 8.41448C25.3014 7.74503 25.846 7.20037 26.5155 7.20037C27.1849 7.20037 27.7296 7.74503 27.7296 8.41448C27.7296 9.08393 27.1849 9.6286 26.5155 9.6286Z" fill="black" fill-opacity="0.51"/>
</g>
<defs>
<clipPath id="clip0">
<rect width="34.5349" height="34.5349" fill="white" transform="translate(0.395142)"/>
</clipPath>
</defs>
</svg>
