<svg width="23" height="23" viewBox="0 0 23 23" fill="none" xmlns="http://www.w3.org/2000/svg">
<g clip-path="url(#clip0)">
<path d="M15.9082 0H6.5918C2.95708 0 0 2.95708 0 6.5918V15.9082C0 19.5429 2.95708 22.5 6.5918 22.5H15.9082C19.5429 22.5 22.5 19.5429 22.5 15.9082V6.5918C22.5 2.95708 19.5429 0 15.9082 0ZM21.6211 15.9082C21.6211 19.0583 19.0583 21.6211 15.9082 21.6211H6.5918C3.44171 21.6211 0.878906 19.0583 0.878906 15.9082V6.5918C0.878906 3.44171 3.44171 0.878906 6.5918 0.878906H15.9082C19.0583 0.878906 21.6211 3.44171 21.6211 6.5918V15.9082Z" fill="black"/>
<path d="M15.9082 1.93359H6.5918C4.02324 1.93359 1.93359 4.02324 1.93359 6.5918V15.9082C1.93359 18.4768 4.02324 20.5664 6.5918 20.5664H9.27246C9.51517 20.5664 9.71191 20.3697 9.71191 20.127C9.71191 19.8842 9.51517 19.6875 9.27246 19.6875H6.5918C4.50791 19.6875 2.8125 17.9921 2.8125 15.9082V6.5918C2.8125 4.50791 4.50791 2.8125 6.5918 2.8125H15.9082C17.9921 2.8125 19.6875 4.50791 19.6875 6.5918V15.9082C19.6875 17.9921 17.9921 19.6875 15.9082 19.6875H13.2569C13.0141 19.6875 12.8174 19.8842 12.8174 20.127C12.8174 20.3697 13.0141 20.5664 13.2569 20.5664H15.9082C18.4768 20.5664 20.5664 18.4768 20.5664 15.9082V6.5918C20.5664 4.02324 18.4768 1.93359 15.9082 1.93359Z" fill="black"/>
<path d="M11.5607 19.8163C11.479 19.7345 11.3656 19.6875 11.25 19.6875C11.1344 19.6875 11.021 19.7345 10.9393 19.8163C10.8576 19.898 10.8105 20.0114 10.8105 20.127C10.8105 20.2425 10.8576 20.3559 10.9393 20.4376C11.021 20.5194 11.1344 20.5664 11.25 20.5664C11.3656 20.5664 11.479 20.5194 11.5607 20.4376C11.6424 20.3559 11.6895 20.2425 11.6895 20.127C11.6895 20.0114 11.6424 19.898 11.5607 19.8163Z" fill="black"/>
<path d="M7.72687 6.84284C7.56089 6.66574 7.28284 6.65669 7.1057 6.82258L7.08623 6.84091C6.9097 7.00746 6.90162 7.28559 7.06821 7.46212C7.15465 7.55375 7.27115 7.59998 7.38792 7.59998C7.49611 7.59998 7.60452 7.56025 7.68943 7.48014L7.70661 7.46401C7.88371 7.29807 7.89281 7.01994 7.72687 6.84284Z" fill="black"/>
<path d="M11.25 5.18555C10.2848 5.18555 9.32414 5.41806 8.47191 5.85795C8.25627 5.96927 8.17167 6.23435 8.28299 6.45003C8.39435 6.66567 8.65942 6.75022 8.87506 6.63895C9.61356 6.25772 10.4126 6.06445 11.25 6.06445C14.1093 6.06445 16.4355 8.3907 16.4355 11.25C16.4355 14.1093 14.1093 16.4355 11.25 16.4355C8.3907 16.4355 6.06445 14.1093 6.06445 11.25C6.06445 10.3527 6.29714 9.46859 6.73739 8.69335C6.85723 8.48232 6.78331 8.21408 6.57224 8.0942C6.36117 7.9744 6.09297 8.04828 5.97309 8.25935C5.45788 9.16664 5.18555 10.2008 5.18555 11.25C5.18555 14.5939 7.90607 17.3145 11.25 17.3145C14.5939 17.3145 17.3145 14.5939 17.3145 11.25C17.3145 7.90607 14.5939 5.18555 11.25 5.18555Z" fill="black"/>
<path d="M11.25 7.29492C9.06917 7.29492 7.29492 9.06917 7.29492 11.25C7.29492 13.4308 9.06917 15.2051 11.25 15.2051C13.4308 15.2051 15.2051 13.4308 15.2051 11.25C15.2051 9.06917 13.4308 7.29492 11.25 7.29492ZM11.25 14.3262C9.5538 14.3262 8.17383 12.9462 8.17383 11.25C8.17383 9.5538 9.5538 8.17383 11.25 8.17383C12.9462 8.17383 14.3262 9.5538 14.3262 11.25C14.3262 12.9462 12.9462 14.3262 11.25 14.3262Z" fill="black"/>
<path d="M17.0178 3.81226C16.097 3.81226 15.3479 4.56139 15.3479 5.48218C15.3479 6.40296 16.097 7.1521 17.0178 7.1521C17.9386 7.1521 18.6877 6.40296 18.6877 5.48218C18.6877 4.56139 17.9386 3.81226 17.0178 3.81226ZM17.0178 6.27319C16.5817 6.27319 16.2268 5.91833 16.2268 5.48218C16.2268 5.04602 16.5817 4.69116 17.0178 4.69116C17.454 4.69116 17.8088 5.04602 17.8088 5.48218C17.8088 5.91833 17.454 6.27319 17.0178 6.27319Z" fill="black"/>
</g>
<defs>
<clipPath id="clip0">
<rect width="22.5" height="22.5" fill="white"/>
</clipPath>
</defs>
</svg>
