<svg width="70" height="68" viewBox="0 0 70 68" fill="none" xmlns="http://www.w3.org/2000/svg">
<g clip-path="url(#clip0)">
<path d="M12.5153 7.52136C9.6561 7.52136 7.32935 9.79142 7.32935 12.5809C7.32935 15.3704 9.6561 17.6405 12.5153 17.6405C15.3744 17.6405 17.7012 15.3704 17.7012 12.5809C17.7012 9.79142 15.3744 7.52136 12.5153 7.52136ZM12.5153 15.3918C10.9272 15.3918 9.6342 14.1314 9.6342 12.5809C9.6342 11.0304 10.9272 9.77005 12.5153 9.77005C14.1033 9.77005 15.3963 11.0304 15.3963 12.5809C15.3963 14.1314 14.1033 15.3918 12.5153 15.3918Z" fill="#FE7A00"/>
<path d="M58.0362 12.0187C58.6726 12.0187 59.1886 11.5153 59.1886 10.8944C59.1886 10.2734 58.6726 9.77002 58.0362 9.77002C57.3997 9.77002 56.8837 10.2734 56.8837 10.8944C56.8837 11.5153 57.3997 12.0187 58.0362 12.0187Z" fill="black"/>
<path d="M53.4265 12.0187C54.0629 12.0187 54.5789 11.5153 54.5789 10.8944C54.5789 10.2734 54.0629 9.77002 53.4265 9.77002C52.79 9.77002 52.274 10.2734 52.274 10.8944C52.274 11.5153 52.79 12.0187 53.4265 12.0187Z" fill="black"/>
<path d="M60.341 15.3918C60.9775 15.3918 61.4935 14.8884 61.4935 14.2674C61.4935 13.6465 60.9775 13.1431 60.341 13.1431C59.7046 13.1431 59.1886 13.6465 59.1886 14.2674C59.1886 14.8884 59.7046 15.3918 60.341 15.3918Z" fill="black"/>
<path d="M55.7313 15.3918C56.3678 15.3918 56.8837 14.8884 56.8837 14.2674C56.8837 13.6465 56.3678 13.1431 55.7313 13.1431C55.0948 13.1431 54.5789 13.6465 54.5789 14.2674C54.5789 14.8884 55.0948 15.3918 55.7313 15.3918Z" fill="black"/>
<path d="M48.8167 12.0187C49.4532 12.0187 49.9692 11.5153 49.9692 10.8944C49.9692 10.2734 49.4532 9.77002 48.8167 9.77002C48.1803 9.77002 47.6643 10.2734 47.6643 10.8944C47.6643 11.5153 48.1803 12.0187 48.8167 12.0187Z" fill="black"/>
<path d="M51.1216 15.3918C51.7581 15.3918 52.274 14.8884 52.274 14.2674C52.274 13.6465 51.7581 13.1431 51.1216 13.1431C50.4851 13.1431 49.9692 13.6465 49.9692 14.2674C49.9692 14.8884 50.4851 15.3918 51.1216 15.3918Z" fill="black"/>
<path d="M44.2071 12.0187C44.8435 12.0187 45.3595 11.5153 45.3595 10.8944C45.3595 10.2734 44.8435 9.77002 44.2071 9.77002C43.5706 9.77002 43.0546 10.2734 43.0546 10.8944C43.0546 11.5153 43.5706 12.0187 44.2071 12.0187Z" fill="black"/>
<path d="M46.5119 15.3918C47.1483 15.3918 47.6643 14.8884 47.6643 14.2674C47.6643 13.6465 47.1483 13.1431 46.5119 13.1431C45.8754 13.1431 45.3594 13.6465 45.3594 14.2674C45.3594 14.8884 45.8754 15.3918 46.5119 15.3918Z" fill="black"/>
<path d="M39.5973 12.0187C40.2338 12.0187 40.7497 11.5153 40.7497 10.8944C40.7497 10.2734 40.2338 9.77002 39.5973 9.77002C38.9608 9.77002 38.4449 10.2734 38.4449 10.8944C38.4449 11.5153 38.9608 12.0187 39.5973 12.0187Z" fill="black"/>
<path d="M41.9022 15.3918C42.5386 15.3918 43.0546 14.8884 43.0546 14.2674C43.0546 13.6465 42.5386 13.1431 41.9022 13.1431C41.2657 13.1431 40.7498 13.6465 40.7498 14.2674C40.7498 14.8884 41.2657 15.3918 41.9022 15.3918Z" fill="black"/>
<path d="M69.5604 19.2064V5.95711C69.5604 3.10014 67.1784 0.776123 64.25 0.776123H5.72518C2.79686 0.776123 0.414795 3.10014 0.414795 5.95711V19.2053C0.414795 20.8569 1.22495 22.313 2.46266 23.2619C1.22495 24.212 0.414795 25.6691 0.414795 27.3197V40.5678C0.414795 42.2195 1.22495 43.6755 2.46266 44.6245C1.22495 45.5745 0.414795 47.0317 0.414795 48.6822V61.9304C0.414795 64.7885 2.79686 67.1125 5.72518 67.1125H64.2489C67.1772 67.1125 69.5593 64.7885 69.5593 61.9315V48.6822C69.5593 47.0306 68.7491 45.5745 67.5114 44.6256C68.7503 43.6766 69.5604 42.2195 69.5604 40.569V27.3197C69.5604 25.668 68.7503 24.212 67.5126 23.263C68.7503 22.3141 69.5604 20.8569 69.5604 19.2064ZM67.2556 48.6822V61.9304C67.2556 63.5472 65.9072 64.8627 64.25 64.8627H5.72518C4.06799 64.8638 2.71965 63.5483 2.71965 61.9315V48.6822C2.71965 47.0654 4.06799 45.7499 5.72518 45.7499H64.2489C65.9072 45.7499 67.2556 47.0654 67.2556 48.6822ZM67.2556 27.3197V40.5678C67.2556 42.1846 65.9072 43.5001 64.25 43.5001H5.72518C4.06799 43.5013 2.71965 42.1858 2.71965 40.569V27.3197C2.71965 25.7029 4.06799 24.3874 5.72518 24.3874H64.2489C65.9072 24.3874 67.2556 25.7029 67.2556 27.3197ZM5.72518 22.1387C4.06799 22.1387 2.71965 20.8232 2.71965 19.2064V5.95711C2.71965 4.3403 4.06799 3.02481 5.72518 3.02481H64.2489C65.9072 3.02481 67.2556 4.3403 67.2556 5.95711V19.2053C67.2556 20.8221 65.9072 22.1376 64.25 22.1376H5.72518V22.1387Z" fill="black"/>
<path d="M12.5153 39.003C15.3744 39.003 17.7012 36.733 17.7012 33.9435C17.7012 31.154 15.3744 28.8839 12.5153 28.8839C9.6561 28.8839 7.32935 31.154 7.32935 33.9435C7.32935 36.733 9.6561 39.003 12.5153 39.003ZM12.5153 31.1326C14.1033 31.1326 15.3963 32.393 15.3963 33.9435C15.3963 35.4939 14.1033 36.7543 12.5153 36.7543C10.9272 36.7543 9.6342 35.4939 9.6342 33.9435C9.6342 32.393 10.9272 31.1326 12.5153 31.1326Z" fill="#FE7A00"/>
<path d="M58.0362 33.3813C58.6726 33.3813 59.1886 32.8779 59.1886 32.2569C59.1886 31.636 58.6726 31.1326 58.0362 31.1326C57.3997 31.1326 56.8837 31.636 56.8837 32.2569C56.8837 32.8779 57.3997 33.3813 58.0362 33.3813Z" fill="black"/>
<path d="M53.4265 33.3813C54.0629 33.3813 54.5789 32.8779 54.5789 32.2569C54.5789 31.636 54.0629 31.1326 53.4265 31.1326C52.79 31.1326 52.274 31.636 52.274 32.2569C52.274 32.8779 52.79 33.3813 53.4265 33.3813Z" fill="black"/>
<path d="M60.341 36.7543C60.9775 36.7543 61.4935 36.2509 61.4935 35.63C61.4935 35.009 60.9775 34.5056 60.341 34.5056C59.7046 34.5056 59.1886 35.009 59.1886 35.63C59.1886 36.2509 59.7046 36.7543 60.341 36.7543Z" fill="black"/>
<path d="M55.7313 36.7543C56.3678 36.7543 56.8837 36.2509 56.8837 35.63C56.8837 35.009 56.3678 34.5056 55.7313 34.5056C55.0948 34.5056 54.5789 35.009 54.5789 35.63C54.5789 36.2509 55.0948 36.7543 55.7313 36.7543Z" fill="black"/>
<path d="M48.8167 33.3813C49.4532 33.3813 49.9692 32.8779 49.9692 32.2569C49.9692 31.636 49.4532 31.1326 48.8167 31.1326C48.1803 31.1326 47.6643 31.636 47.6643 32.2569C47.6643 32.8779 48.1803 33.3813 48.8167 33.3813Z" fill="black"/>
<path d="M51.1216 36.7543C51.7581 36.7543 52.274 36.2509 52.274 35.63C52.274 35.009 51.7581 34.5056 51.1216 34.5056C50.4851 34.5056 49.9692 35.009 49.9692 35.63C49.9692 36.2509 50.4851 36.7543 51.1216 36.7543Z" fill="black"/>
<path d="M44.2071 33.3813C44.8435 33.3813 45.3595 32.8779 45.3595 32.2569C45.3595 31.636 44.8435 31.1326 44.2071 31.1326C43.5706 31.1326 43.0546 31.636 43.0546 32.2569C43.0546 32.8779 43.5706 33.3813 44.2071 33.3813Z" fill="black"/>
<path d="M46.5119 36.7543C47.1483 36.7543 47.6643 36.2509 47.6643 35.63C47.6643 35.009 47.1483 34.5056 46.5119 34.5056C45.8754 34.5056 45.3594 35.009 45.3594 35.63C45.3594 36.2509 45.8754 36.7543 46.5119 36.7543Z" fill="black"/>
<path d="M39.5973 33.3813C40.2338 33.3813 40.7497 32.8779 40.7497 32.2569C40.7497 31.636 40.2338 31.1326 39.5973 31.1326C38.9608 31.1326 38.4449 31.636 38.4449 32.2569C38.4449 32.8779 38.9608 33.3813 39.5973 33.3813Z" fill="black"/>
<path d="M41.9022 36.7543C42.5386 36.7543 43.0546 36.2509 43.0546 35.63C43.0546 35.009 42.5386 34.5056 41.9022 34.5056C41.2657 34.5056 40.7498 35.009 40.7498 35.63C40.7498 36.2509 41.2657 36.7543 41.9022 36.7543Z" fill="black"/>
<path d="M12.5153 60.3656C15.3744 60.3656 17.7012 58.0955 17.7012 55.306C17.7012 52.5165 15.3744 50.2465 12.5153 50.2465C9.6561 50.2465 7.32935 52.5165 7.32935 55.306C7.32935 58.0955 9.6561 60.3656 12.5153 60.3656ZM12.5153 52.4952C14.1033 52.4952 15.3963 53.7555 15.3963 55.306C15.3963 56.8565 14.1033 58.1169 12.5153 58.1169C10.9272 58.1169 9.6342 56.8565 9.6342 55.306C9.6342 53.7555 10.9272 52.4952 12.5153 52.4952Z" fill="#FE7A00"/>
<path d="M58.0362 54.7438C58.6726 54.7438 59.1886 54.2404 59.1886 53.6195C59.1886 52.9985 58.6726 52.4951 58.0362 52.4951C57.3997 52.4951 56.8837 52.9985 56.8837 53.6195C56.8837 54.2404 57.3997 54.7438 58.0362 54.7438Z" fill="black"/>
<path d="M53.4265 54.7438C54.0629 54.7438 54.5789 54.2404 54.5789 53.6195C54.5789 52.9985 54.0629 52.4951 53.4265 52.4951C52.79 52.4951 52.274 52.9985 52.274 53.6195C52.274 54.2404 52.79 54.7438 53.4265 54.7438Z" fill="black"/>
<path d="M60.341 58.1169C60.9775 58.1169 61.4935 57.6135 61.4935 56.9925C61.4935 56.3715 60.9775 55.8682 60.341 55.8682C59.7046 55.8682 59.1886 56.3715 59.1886 56.9925C59.1886 57.6135 59.7046 58.1169 60.341 58.1169Z" fill="black"/>
<path d="M55.7313 58.1169C56.3678 58.1169 56.8837 57.6135 56.8837 56.9925C56.8837 56.3715 56.3678 55.8682 55.7313 55.8682C55.0948 55.8682 54.5789 56.3715 54.5789 56.9925C54.5789 57.6135 55.0948 58.1169 55.7313 58.1169Z" fill="black"/>
<path d="M48.8167 54.7438C49.4532 54.7438 49.9692 54.2404 49.9692 53.6195C49.9692 52.9985 49.4532 52.4951 48.8167 52.4951C48.1803 52.4951 47.6643 52.9985 47.6643 53.6195C47.6643 54.2404 48.1803 54.7438 48.8167 54.7438Z" fill="black"/>
<path d="M51.1216 58.1169C51.7581 58.1169 52.274 57.6135 52.274 56.9925C52.274 56.3715 51.7581 55.8682 51.1216 55.8682C50.4851 55.8682 49.9692 56.3715 49.9692 56.9925C49.9692 57.6135 50.4851 58.1169 51.1216 58.1169Z" fill="black"/>
<path d="M44.2071 54.7438C44.8435 54.7438 45.3595 54.2404 45.3595 53.6195C45.3595 52.9985 44.8435 52.4951 44.2071 52.4951C43.5706 52.4951 43.0546 52.9985 43.0546 53.6195C43.0546 54.2404 43.5706 54.7438 44.2071 54.7438Z" fill="black"/>
<path d="M46.5119 58.1169C47.1483 58.1169 47.6643 57.6135 47.6643 56.9925C47.6643 56.3715 47.1483 55.8682 46.5119 55.8682C45.8754 55.8682 45.3594 56.3715 45.3594 56.9925C45.3594 57.6135 45.8754 58.1169 46.5119 58.1169Z" fill="black"/>
<path d="M39.5973 54.7438C40.2338 54.7438 40.7497 54.2404 40.7497 53.6195C40.7497 52.9985 40.2338 52.4951 39.5973 52.4951C38.9608 52.4951 38.4449 52.9985 38.4449 53.6195C38.4449 54.2404 38.9608 54.7438 39.5973 54.7438Z" fill="black"/>
<path d="M41.9022 58.1169C42.5386 58.1169 43.0546 57.6135 43.0546 56.9925C43.0546 56.3715 42.5386 55.8682 41.9022 55.8682C41.2657 55.8682 40.7498 56.3715 40.7498 56.9925C40.7498 57.6135 41.2657 58.1169 41.9022 58.1169Z" fill="black"/>
</g>
<defs>
<clipPath id="clip0">
<rect width="69.1456" height="67.4607" fill="white" transform="translate(0.414795 0.213013)"/>
</clipPath>
</defs>
</svg>
