<svg width="59" height="59" viewBox="0 0 59 59" fill="none" xmlns="http://www.w3.org/2000/svg">
<path d="M26.7344 21.2031H32.2656V23.0469H26.7344V21.2031Z" fill="black"/>
<path d="M53.4688 24.8906H52.5469V22.125C52.5469 20.6002 51.306 19.3594 49.7812 19.3594C48.2565 19.3594 47.0156 20.6002 47.0156 22.125V25.0602C45.9453 25.4419 45.1719 26.456 45.1719 27.6562V29.8162C45.1719 31.0478 45.6522 32.2057 46.5224 33.076L46.9502 33.5037L46.2495 37.7065C43.9615 32.6593 39.4443 28.993 33.9434 27.8001L33.5747 26.3278C35.7568 25.5203 37.382 23.5687 37.7231 21.2022H37.7969C39.8305 21.2022 41.4844 19.5484 41.4844 17.5147C41.4844 16.7625 41.2558 16.0646 40.8686 15.481L41.1626 14.3057C41.3765 13.4511 41.4853 12.5725 41.4853 11.6931C41.4844 5.75342 36.6528 0.921875 30.7123 0.921875H28.2868C22.3472 0.921875 17.5156 5.75342 17.5156 11.694C17.5156 12.5735 17.6235 13.452 17.8383 14.3066L18.1324 15.4829C17.7443 16.0655 17.5156 16.7643 17.5156 17.5156C17.5156 19.5493 19.1695 21.2031 21.2031 21.2031H21.2769C21.618 23.5696 23.2432 25.5203 25.4253 26.3287L25.0612 27.7835C17.5663 29.1635 11.9844 35.7826 11.9844 43.46V47.9375C11.9844 53.5287 16.5338 58.0781 22.125 58.0781H30.4219C32.2509 58.0781 33.7609 56.7377 34.0485 54.9898C35.1363 54.5999 36.2712 54.3906 37.4327 54.3906H41.4844V52.3284L42.7695 53.8698C44.0223 55.3724 45.8624 56.2344 47.8186 56.2344C51.4425 56.2344 54.3906 53.2862 54.3906 49.6623V33.5692L54.8838 33.076C55.7541 32.2057 56.2344 31.0478 56.2344 29.8162V27.6562C56.2344 26.1315 54.9935 24.8906 53.4688 24.8906ZM49.7812 21.2031C50.2901 21.2031 50.7031 21.6161 50.7031 22.125V25.0602C50.3583 25.1829 50.0477 25.37 49.7812 25.6097C49.5148 25.3691 49.2042 25.1829 48.8594 25.0602V22.125C48.8594 21.6161 49.2724 21.2031 49.7812 21.2031ZM30.3011 50.7031C29.9665 49.6356 28.9672 48.8594 27.7899 48.8594C26.7869 48.8594 25.8862 49.4162 25.4364 50.3141L25.2428 50.7031H23.0469V41.4844H25.2548C27.0847 41.4844 28.8602 41.9831 30.4219 42.9207V50.7031H30.3011ZM27.7982 30.6016L25.2843 32.6122L24.1882 29.8715C24.6749 29.7369 25.17 29.6235 25.677 29.5406L27.7982 30.6016ZM29.2741 35.9531H29.7268L31.2433 41.2613C30.2624 40.6888 29.2115 40.2666 28.119 39.9955L29.2741 35.9531ZM29.8522 34.1094H29.1478L28.3532 32.5201L29.5 31.6028L30.6468 32.5201L29.8522 34.1094ZM31.2018 30.6016L33.311 29.547C33.8144 29.6484 34.3076 29.7738 34.7925 29.9195L33.7148 32.6122L31.2018 30.6016ZM35.9531 15.6719C35.9531 16.6887 35.1262 17.5156 34.1094 17.5156C33.0925 17.5156 32.2656 16.6887 32.2656 15.6719C32.2656 14.655 33.0925 13.8281 34.1094 13.8281C35.1262 13.8281 35.9531 14.655 35.9531 15.6719ZM37.7969 19.3594V15.6719C38.8137 15.6719 39.6406 16.4988 39.6406 17.5156C39.6406 18.5325 38.8137 19.3594 37.7969 19.3594ZM28.2877 2.76562H30.7132C35.6351 2.76562 39.6406 6.77117 39.6406 11.694C39.6406 12.4223 39.5503 13.1515 39.3742 13.8604L39.3005 14.1563C38.8395 13.9489 38.3334 13.8281 37.7969 13.8281H37.7517C37.5258 11.729 35.896 10.0106 33.76 9.74422L33.2732 9.68337C31.647 9.47964 30.4219 8.0913 30.4219 6.45312H28.5781C28.5781 9.01962 30.4984 11.1952 33.0437 11.5124L33.5304 11.5732C33.9831 11.6304 34.3933 11.8028 34.7492 12.048C34.5399 12.012 34.3288 11.9844 34.1094 11.9844C32.3956 11.9844 30.9649 13.1635 30.5528 14.75H28.4472C28.0351 13.1635 26.6044 11.9844 24.8906 11.9844C24.2333 11.9844 23.6258 12.1715 23.0902 12.473C23.2949 11.1851 24.3836 10.1959 25.7175 10.1498C26.2633 11.1823 27.0616 12.0812 28.0665 12.7514L29.0888 11.2174C27.6148 10.2347 26.7344 8.58911 26.7344 6.81727V6.45312H24.8906V6.81727C24.8906 7.34734 24.9579 7.86636 25.0704 8.37247C22.8828 8.72923 21.2031 10.6191 21.2031 12.9062V13.8281C20.6666 13.8281 20.1605 13.9489 19.6995 14.1563L19.6258 13.8604C19.4497 13.1515 19.3594 12.4223 19.3594 11.694C19.3594 6.77117 23.3649 2.76562 28.2877 2.76562ZM24.8906 13.8281C25.9075 13.8281 26.7344 14.655 26.7344 15.6719C26.7344 16.6887 25.9075 17.5156 24.8906 17.5156C23.8738 17.5156 23.0469 16.6887 23.0469 15.6719C23.0469 14.655 23.8738 13.8281 24.8906 13.8281ZM19.3594 17.5156C19.3594 16.4988 20.1863 15.6719 21.2031 15.6719V19.3594C20.1863 19.3594 19.3594 18.5325 19.3594 17.5156ZM23.0469 20.2812V18.8468C23.5917 19.1639 24.2158 19.3594 24.8906 19.3594C26.6044 19.3594 28.0351 18.1803 28.4472 16.5938H30.5528C30.9649 18.1803 32.3956 19.3594 34.1094 19.3594C34.7842 19.3594 35.4083 19.1639 35.9531 18.8468V20.2812C35.9531 22.8229 33.8854 24.8906 31.3438 24.8906H27.6562C25.1146 24.8906 23.0469 22.8229 23.0469 20.2812ZM27.6562 26.7344H31.3438C31.4876 26.7344 31.6295 26.7224 31.7706 26.7132L32.1135 28.084L29.5 29.3912L26.8865 28.084L27.2294 26.7132C27.3705 26.7224 27.5124 26.7344 27.6562 26.7344ZM13.8281 47.9375V43.46C13.8281 37.7231 17.3525 32.65 22.4449 30.4772L24.497 35.6065L26.8819 33.6991L27.5945 35.1234L26.2891 39.6913C25.9453 39.6609 25.6014 39.6406 25.2548 39.6406H21.2031V50.5335C20.1328 50.1518 19.3594 49.1378 19.3594 47.9375V37.7969H17.5156V47.9375C17.5156 50.4791 19.5834 52.5469 22.125 52.5469H24.8906V56.2344H22.125C17.5497 56.2344 13.8281 52.5128 13.8281 47.9375ZM30.4219 56.2344H26.7344V51.8426L27.0865 51.1382C27.2202 50.87 27.4903 50.7031 27.7908 50.7031C28.2241 50.7031 28.5781 51.0571 28.5781 51.4904V52.5469H30.4219C31.4387 52.5469 32.2656 53.3738 32.2656 54.3906C32.2656 55.4075 31.4387 56.2344 30.4219 56.2344ZM39.6406 52.5469H37.4327C36.2122 52.5469 35.0165 52.734 33.8632 53.0982C33.5627 52.2998 32.9939 51.6407 32.2656 51.2157V42.9207C33.8282 41.9831 35.6028 41.4844 37.4327 41.4844H39.6406V52.5469ZM47.8186 54.3906C46.4118 54.3906 45.0871 53.7702 44.1864 52.6888L41.4844 49.4466V39.6406H37.4327C35.8821 39.6406 34.3647 39.9448 32.9487 40.5219L31.4064 35.1225L32.119 33.6982L34.5039 35.6056L36.5247 30.5546C40.757 32.3928 44.0085 36.002 45.3516 40.5699L45.6199 41.4816L44.262 49.6301L46.0808 49.9324L48.7183 34.1094H52.5469V49.6623C52.5469 52.2694 50.4256 54.3906 47.8186 54.3906ZM53.5803 31.7724L53.0871 32.2656H48.3192L47.826 31.7724C47.3042 31.2497 47.0156 30.5555 47.0156 29.8162V27.6562C47.0156 27.1474 47.4286 26.7344 47.9375 26.7344C48.4464 26.7344 48.8594 27.1474 48.8594 27.6562C48.8594 29.181 50.1002 30.4219 51.625 30.4219H54.3252C54.2118 30.9298 53.9564 31.3963 53.5803 31.7724ZM54.3906 28.5781H51.625C51.1161 28.5781 50.7031 28.1651 50.7031 27.6562C50.7031 27.1474 51.1161 26.7344 51.625 26.7344H53.4688C53.9776 26.7344 54.3906 27.1474 54.3906 27.6562V28.5781Z" fill="black"/>
</svg>
