<svg width="23" height="23" viewBox="0 0 23 23" fill="none" xmlns="http://www.w3.org/2000/svg">
<g clip-path="url(#clip0)">
<path d="M11.3859 18.2812C14.6409 18.2812 13.4803 16.2206 13.7316 15.6281C13.7278 15.1856 13.7241 14.76 13.7391 14.5013C13.9453 14.5594 14.4319 14.8059 15.4369 15.7828C16.9884 17.3484 17.385 18.2812 18.6384 18.2812H20.9456C21.6769 18.2812 22.0575 17.9784 22.2478 17.7244C22.4316 17.4788 22.6116 17.0475 22.4147 16.3763C21.9 14.76 18.8981 11.9691 18.7116 11.6747C18.7397 11.6203 18.7847 11.5481 18.8081 11.5106H18.8062C19.3988 10.7278 21.66 7.33969 21.9928 5.98406C21.9937 5.98219 21.9947 5.97938 21.9947 5.97656C22.1747 5.35781 22.0097 4.95656 21.8391 4.72969C21.5822 4.39031 21.1734 4.21875 20.6213 4.21875H18.3141C17.5416 4.21875 16.9556 4.60781 16.6594 5.3175C16.1634 6.57844 14.7703 9.17156 13.7259 10.0894C13.6941 8.78906 13.7156 7.79625 13.7325 7.05844C13.7662 5.61937 13.875 4.21875 12.3816 4.21875H8.75531C7.81969 4.21875 6.92438 5.24062 7.89375 6.45375C8.74125 7.51687 8.19844 8.10937 8.38125 11.0587C7.66875 10.2947 6.40125 8.23125 5.505 5.59406C5.25375 4.88063 4.87313 4.21969 3.80156 4.21969H1.49437C0.55875 4.21969 0 4.72969 0 5.58375C0 7.50187 4.24594 18.2812 11.3859 18.2812ZM3.80156 5.62594C4.005 5.62594 4.02562 5.62594 4.17656 6.05438C5.09438 8.75719 7.15313 12.7566 8.65688 12.7566C9.78656 12.7566 9.78656 11.5987 9.78656 11.1628L9.78562 7.69219C9.72375 6.54375 9.30562 5.97187 9.03094 5.625L12.3197 5.62875C12.3216 5.64469 12.3009 9.46781 12.3291 10.3941C12.3291 11.7094 13.3734 12.4631 15.0037 10.8131C16.7241 8.87156 17.9137 5.96906 17.9616 5.85094C18.0319 5.68219 18.0928 5.625 18.3141 5.625H20.6213H20.6306C20.6297 5.62781 20.6297 5.63062 20.6287 5.63344C20.4178 6.61781 18.3356 9.75469 17.6391 10.7288C17.6278 10.7438 17.6175 10.7597 17.6072 10.7756C17.3006 11.2763 17.0513 11.8294 17.6494 12.6075H17.6503C17.7047 12.6731 17.8463 12.8269 18.0525 13.0406C18.6938 13.7025 20.8931 15.9656 21.0881 16.8656C20.9587 16.8862 20.8181 16.8712 18.6384 16.8759C18.1744 16.8759 17.8116 16.1822 16.4269 14.7853C15.1819 13.5741 14.3737 13.0791 13.6378 13.0791C12.2091 13.0791 12.3131 14.2387 12.3263 15.6412C12.3309 17.1619 12.3216 16.6809 12.3319 16.7766C12.2484 16.8094 12.0094 16.875 11.3859 16.875C5.4375 16.875 1.56375 7.43344 1.41469 5.62875C1.46625 5.62406 2.17594 5.62687 3.80156 5.62594Z" fill="black"/>
</g>
<defs>
<clipPath id="clip0">
<rect width="22.5" height="22.5" fill="white"/>
</clipPath>
</defs>
</svg>
