<svg width="36" height="36" viewBox="0 0 36 36" fill="none" xmlns="http://www.w3.org/2000/svg">
<g clip-path="url(#clip0)">
<path d="M18.4341 28.5945C23.4301 28.5945 21.6487 25.4317 22.0344 24.5223C22.0286 23.8431 22.0228 23.1898 22.0459 22.7927C22.3624 22.8819 23.1092 23.2603 24.6518 24.7597C27.0333 27.1628 27.642 28.5945 29.5658 28.5945H33.1071C34.2295 28.5945 34.8137 28.1297 35.1058 27.7398C35.3878 27.3628 35.6641 26.7009 35.3619 25.6706C34.5719 23.1898 29.9644 18.906 29.6781 18.4542C29.7212 18.3708 29.7903 18.26 29.8263 18.2024H29.8234C30.7328 17.0009 34.2036 11.8005 34.7144 9.71977C34.7158 9.71689 34.7173 9.71258 34.7173 9.70826C34.9936 8.75855 34.7403 8.14268 34.4784 7.79445C34.0841 7.27355 33.4568 7.01022 32.6092 7.01022H29.068C27.8823 7.01022 26.9829 7.60739 26.5282 8.69668C25.767 10.6321 23.6287 14.6122 22.0257 16.0209C21.9768 14.0251 22.0099 12.5013 22.0358 11.3688C22.0876 9.16002 22.2545 7.01022 19.9623 7.01022H14.3964C12.9603 7.01022 11.5861 8.57868 13.074 10.4407C14.3748 12.0725 13.5417 12.9819 13.8222 17.5088C12.7286 16.3361 10.7832 13.1689 9.40754 9.12117C9.0219 8.02612 8.43769 7.01166 6.79296 7.01166H3.2517C1.81562 7.01166 0.958008 7.79445 0.958008 9.10534C0.958008 12.0494 7.47503 28.5945 18.4341 28.5945ZM6.79296 9.17009C7.10521 9.17009 7.13687 9.17009 7.36854 9.82769C8.77728 13.9762 11.9372 20.1148 14.2453 20.1148C15.9792 20.1148 15.9792 18.3377 15.9792 17.6685L15.9778 12.3415C15.8828 10.5788 15.2411 9.70107 14.8194 9.16865L19.8673 9.17441C19.8702 9.19887 19.8385 15.0669 19.8817 16.4886C19.8817 18.5075 21.4847 19.6644 23.987 17.1318C26.6275 14.1517 28.4535 9.69675 28.5269 9.51544C28.6348 9.25643 28.7284 9.16865 29.068 9.16865H32.6092H32.6236C32.6222 9.17297 32.6222 9.17729 32.6207 9.1816C32.297 10.6925 29.101 15.5072 28.0319 17.0023C28.0146 17.0253 27.9988 17.0498 27.983 17.0743C27.5124 17.8427 27.1297 18.6916 28.0477 19.886H28.0492C28.1326 19.9867 28.3499 20.2227 28.6665 20.5508C29.6507 21.5667 33.0265 25.0403 33.3258 26.4217C33.1272 26.4534 32.9114 26.4303 29.5658 26.4375C28.8535 26.4375 28.2967 25.3727 26.1713 23.2287C24.2604 21.3695 23.02 20.6098 21.8905 20.6098C19.6975 20.6098 19.8572 22.3898 19.8774 24.5424C19.8846 26.8764 19.8702 26.1382 19.886 26.285C19.7579 26.3354 19.391 26.4361 18.4341 26.4361C9.30394 26.4361 3.35818 11.9444 3.12939 9.17441C3.20853 9.16721 4.29782 9.17153 6.79296 9.17009Z" fill="black" fill-opacity="0.51"/>
</g>
<defs>
<clipPath id="clip0">
<rect width="34.5349" height="34.5349" fill="white" transform="translate(0.958008 0.534912)"/>
</clipPath>
</defs>
</svg>
