<svg width="35" height="35" viewBox="0 0 35 35" fill="none" xmlns="http://www.w3.org/2000/svg">
<g clip-path="url(#clip0)">
<path fill-rule="evenodd" clip-rule="evenodd" d="M29.8293 7.00743C26.8003 3.97491 22.772 2.30412 18.4805 2.30234C9.63746 2.30234 2.4405 9.4991 2.43694 18.3445C2.43575 21.1721 3.17442 23.9323 4.57844 26.3653L2.30237 34.6788L10.8073 32.4478C13.1508 33.7261 15.7891 34.3998 18.474 34.4005H18.4807C27.3228 34.4005 34.5205 27.2032 34.5239 18.3574C34.5257 14.0704 32.8584 10.0398 29.8293 7.00743ZM18.4805 31.6911H18.475C16.0823 31.6901 13.7357 31.0471 11.6881 29.8324L11.2013 29.5433L6.15438 30.8673L7.50149 25.9466L7.18433 25.4421C5.84947 23.319 5.14459 20.865 5.14578 18.3455C5.14855 10.9934 11.1306 5.01197 18.4858 5.01197C22.0476 5.01315 25.3957 6.40196 27.9132 8.92247C30.4308 11.443 31.8164 14.7933 31.8152 18.3564C31.8121 25.7091 25.8304 31.6911 18.4805 31.6911ZM25.7948 21.7041C25.3941 21.5033 23.4231 20.5338 23.0556 20.3999C22.6884 20.2661 22.4209 20.1995 22.1539 20.6006C21.8865 21.0018 21.1184 21.9049 20.8844 22.1722C20.6505 22.4398 20.4169 22.4734 20.0159 22.2726C19.615 22.072 18.3234 21.6486 16.7921 20.2829C15.6005 19.2199 14.7961 17.9072 14.5621 17.5061C14.3285 17.1045 14.5601 16.9085 14.738 16.688C15.1719 16.1491 15.6065 15.5841 15.7401 15.3167C15.8738 15.0492 15.8068 14.815 15.7065 14.6144C15.6065 14.4139 14.8048 12.4407 14.4708 11.6378C14.1451 10.8565 13.8149 10.962 13.5687 10.9498C13.3351 10.9381 13.0678 10.9357 12.8004 10.9357C12.5332 10.9357 12.0989 11.0359 11.7313 11.4375C11.364 11.8388 10.3285 12.8085 10.3285 14.7816C10.3285 16.7548 11.7649 18.6609 11.9653 18.9285C12.1657 19.196 14.7921 23.2451 18.8133 24.9813C19.7697 25.3947 20.5163 25.6411 21.0986 25.8258C22.059 26.131 22.9327 26.0879 23.6235 25.9847C24.3938 25.8695 25.995 25.0149 26.3294 24.0786C26.6633 23.1421 26.6633 22.3396 26.563 22.1722C26.463 22.0051 26.1956 21.9049 25.7948 21.7041Z" fill="black" fill-opacity="0.51"/>
</g>
<defs>
<clipPath id="clip0">
<rect width="34.5349" height="34.5349" fill="white"/>
</clipPath>
</defs>
</svg>
