<svg width="23" height="23" viewBox="0 0 23 23" fill="none" xmlns="http://www.w3.org/2000/svg">
<g clip-path="url(#clip0)">
<path fill-rule="evenodd" clip-rule="evenodd" d="M19.4342 4.56544C17.4608 2.58971 14.8363 1.50116 12.0403 1.5C6.27892 1.5 1.58999 6.1888 1.58768 11.9517C1.5869 13.794 2.06816 15.5923 2.9829 17.1774L1.5 22.5938L7.0411 21.1402C8.5679 21.9731 10.2868 22.412 12.0361 22.4125H12.0404C17.8012 22.4125 22.4906 17.7233 22.4928 11.9601C22.494 9.16709 21.4077 6.54105 19.4342 4.56544ZM12.0403 20.6472H12.0367C10.4778 20.6466 8.94899 20.2277 7.61492 19.4363L7.29782 19.2479L4.00965 20.1105L4.88731 16.9046L4.68067 16.5759C3.81099 15.1927 3.35175 13.5939 3.35253 11.9524C3.35433 7.16238 7.25173 3.26537 12.0438 3.26537C14.3643 3.26614 16.5456 4.17097 18.1859 5.81312C19.8261 7.45528 20.7289 9.63804 20.7281 11.9595C20.726 16.7498 16.8289 20.6472 12.0403 20.6472ZM16.8057 14.1405C16.5446 14.0097 15.2605 13.3781 15.021 13.2908C14.7818 13.2037 14.6075 13.1603 14.4336 13.4216C14.2594 13.683 13.7589 14.2714 13.6065 14.4455C13.4541 14.6199 13.3019 14.6418 13.0407 14.5109C12.7794 14.3803 11.938 14.1044 10.9403 13.2146C10.164 12.5221 9.63984 11.6668 9.4874 11.4055C9.33523 11.1439 9.48612 11.0161 9.60199 10.8725C9.88471 10.5214 10.1678 10.1533 10.2549 9.97909C10.342 9.80476 10.2984 9.6522 10.233 9.52152C10.1678 9.39085 9.6455 8.10532 9.42792 7.58222C9.21575 7.07316 9.00061 7.14191 8.8402 7.13393C8.68802 7.12633 8.51383 7.12479 8.33963 7.12479C8.16557 7.12479 7.88258 7.19006 7.64312 7.45167C7.40378 7.71316 6.72915 8.34491 6.72915 9.63044C6.72915 10.916 7.665 12.1579 7.79555 12.3322C7.9261 12.5065 9.63726 15.1445 12.2571 16.2757C12.8802 16.545 13.3666 16.7056 13.7461 16.8259C14.3718 17.0247 14.941 16.9966 15.3911 16.9294C15.8929 16.8544 16.9361 16.2976 17.154 15.6876C17.3716 15.0774 17.3716 14.5546 17.3061 14.4455C17.241 14.3366 17.0668 14.2714 16.8057 14.1405Z" fill="black"/>
</g>
<defs>
<clipPath id="clip0">
<rect width="22.5" height="22.5" fill="white"/>
</clipPath>
</defs>
</svg>
