<svg width="35" height="35" viewBox="0 0 35 35" fill="none" xmlns="http://www.w3.org/2000/svg">
<g clip-path="url(#clip0)">
<path d="M23.0483 15.7155L15.4187 11.5409C14.98 11.3009 14.4615 11.3099 14.0315 11.5646C13.6012 11.8197 13.3446 12.2702 13.3446 12.7703V21.0478C13.3446 21.5455 13.5997 21.9953 14.027 22.2506C14.2502 22.3839 14.4976 22.4509 14.7455 22.4509C14.9726 22.4509 15.2003 22.3947 15.4097 22.282L23.0396 18.1793C23.4925 17.9356 23.7752 17.4648 23.7773 16.9502C23.7791 16.4356 23.4999 15.9627 23.0483 15.7155ZM15.3684 20.0066V13.82L21.0706 16.9402L15.3684 20.0066Z" fill="black" fill-opacity="0.51"/>
<path d="M34.7458 10.3555L34.7442 10.3397C34.715 10.0618 34.4239 7.58927 33.2219 6.33168C31.8325 4.8525 30.2575 4.67281 29.5 4.58665C29.4373 4.57954 29.3798 4.57295 29.3284 4.5661L29.2681 4.55978C24.7025 4.22779 17.8075 4.18247 17.7385 4.18221L17.7325 4.18195L17.7264 4.18221C17.6574 4.18247 10.7624 4.22779 6.15571 4.55978L6.09485 4.5661C6.04584 4.57269 5.99183 4.57875 5.93307 4.5856C5.18426 4.67202 3.62605 4.85198 2.23277 6.38464C1.08795 7.62879 0.757023 10.0483 0.723034 10.3202L0.719082 10.3555C0.708806 10.4712 0.465088 13.2248 0.465088 15.9893V18.5735C0.465088 21.3379 0.708806 24.0916 0.719082 24.2075L0.720926 24.2249C0.750172 24.4984 1.04105 26.9256 2.23751 28.1837C3.54384 29.6133 5.19559 29.8025 6.08404 29.9042C6.22448 29.9203 6.34541 29.934 6.42788 29.9485L6.50772 29.9595C9.14383 30.2104 17.4089 30.3339 17.7593 30.3389L17.7699 30.3392L17.7804 30.3389C17.8494 30.3387 24.7442 30.2934 29.3097 29.9614L29.3701 29.955C29.4278 29.9474 29.4926 29.9406 29.5637 29.9332C30.3083 29.8541 31.8581 29.69 33.2321 28.1781C34.377 26.9337 34.7081 24.5142 34.7419 24.2425L34.7458 24.2072C34.7561 24.0913 35.0001 21.3379 35.0001 18.5735V15.9893C34.9998 13.2248 34.7561 10.4715 34.7458 10.3555ZM32.976 18.5735C32.976 21.1321 32.7526 23.7672 32.7315 24.0091C32.6456 24.6754 32.2965 26.2062 31.7387 26.8125C30.8787 27.7587 29.9953 27.8525 29.3503 27.9207C29.2723 27.9289 29.2001 27.9368 29.1348 27.945C24.7189 28.2643 18.0842 28.3133 17.7786 28.3151C17.4358 28.3101 9.29164 28.1855 6.73589 27.9481C6.60494 27.9268 6.46345 27.9104 6.31432 27.8936C5.55788 27.8069 4.5224 27.6883 3.72617 26.8125L3.70746 26.7925C3.15943 26.2215 2.82033 24.79 2.73417 24.017C2.7181 23.8341 2.48887 21.168 2.48887 18.5735V15.9893C2.48887 13.4335 2.71177 10.8014 2.73338 10.5545C2.83587 9.76957 3.19157 8.33149 3.72617 7.75026C4.61251 6.77538 5.54707 6.66735 6.16519 6.59595C6.22421 6.5891 6.27928 6.58278 6.33013 6.57619C10.8103 6.25527 17.4927 6.20758 17.7325 6.20574C17.9722 6.20732 24.6522 6.25527 29.0926 6.57619C29.1472 6.58304 29.2067 6.58989 29.2707 6.59727C29.9065 6.66972 30.8674 6.77933 31.7493 7.71996L31.7574 7.72865C32.3055 8.29961 32.6446 9.75613 32.7307 10.5447C32.746 10.7173 32.976 13.3893 32.976 15.9893V18.5735Z" fill="black" fill-opacity="0.51"/>
</g>
<defs>
<clipPath id="clip0">
<rect width="34.5349" height="34.5349" fill="white" transform="translate(0.465088)"/>
</clipPath>
</defs>
</svg>
