<svg width="23" height="23" viewBox="0 0 23 23" fill="none" xmlns="http://www.w3.org/2000/svg">
<g clip-path="url(#clip0)">
<path d="M15.2132 10.2389L10.2424 7.51906C9.95661 7.36268 9.61878 7.36851 9.33863 7.53451C9.05831 7.70068 8.89111 7.99422 8.89111 8.32003V13.7129C8.89111 14.0372 9.05728 14.3302 9.33571 14.4966C9.48111 14.5834 9.6423 14.627 9.80383 14.627C9.9518 14.627 10.1001 14.5905 10.2366 14.517L15.2075 11.8441C15.5026 11.6853 15.6868 11.3785 15.6882 11.0433C15.6894 10.708 15.5074 10.3999 15.2132 10.2389ZM10.2096 13.0345V9.00393L13.9247 11.0367L10.2096 13.0345Z" fill="black"/>
<path d="M22.8344 6.74681L22.8334 6.73651C22.8143 6.5554 22.6247 4.94453 21.8415 4.12519C20.9364 3.16149 19.9102 3.04441 19.4167 2.98828C19.3758 2.98365 19.3384 2.97935 19.3049 2.97489L19.2656 2.97077C16.2911 2.75448 11.7989 2.72495 11.7539 2.72478L11.75 2.72461L11.746 2.72478C11.701 2.72495 7.20884 2.75448 4.20753 2.97077L4.16787 2.97489C4.13595 2.97918 4.10075 2.98313 4.06247 2.98759C3.57462 3.0439 2.55941 3.16114 1.65167 4.1597C0.905806 4.97028 0.6902 6.54665 0.668056 6.7238L0.665481 6.74681C0.658786 6.82217 0.5 8.6162 0.5 10.4173V12.1009C0.5 13.902 0.658786 15.696 0.665481 15.7716L0.666683 15.7829C0.685737 15.9611 0.87525 17.5424 1.65476 18.3621C2.50586 19.2935 3.582 19.4168 4.16084 19.4831C4.25233 19.4935 4.33112 19.5024 4.38485 19.5119L4.43687 19.5191C6.15433 19.6825 11.5392 19.763 11.7675 19.7663L11.7743 19.7665L11.7812 19.7663C11.8262 19.7661 16.3182 19.7366 19.2927 19.5203L19.332 19.5162C19.3696 19.5112 19.4119 19.5067 19.4582 19.5019C19.9433 19.4504 20.953 19.3435 21.8482 18.3585C22.5941 17.5477 22.8099 15.9714 22.8319 15.7944L22.8344 15.7714C22.8411 15.6959 23.0001 13.902 23.0001 12.1009V10.4173C22.9999 8.6162 22.8411 6.82234 22.8344 6.74681ZM21.6814 12.1009C21.6814 13.7679 21.5358 15.4847 21.5221 15.6423C21.4661 16.0764 21.2387 17.0738 20.8753 17.4688C20.315 18.0852 19.7394 18.1463 19.3192 18.1908C19.2684 18.1961 19.2213 18.2013 19.1787 18.2066C16.3017 18.4146 11.9791 18.4466 11.78 18.4478C11.5567 18.4445 6.25063 18.3633 4.58553 18.2086C4.50021 18.1947 4.40803 18.1841 4.31087 18.1731C3.81803 18.1166 3.1434 18.0394 2.62464 17.4688L2.61246 17.4557C2.2554 17.0837 2.03448 16.1511 1.97834 15.6474C1.96787 15.5283 1.81853 13.7913 1.81853 12.1009V10.4173C1.81853 8.75216 1.96375 7.03726 1.97783 6.87641C2.0446 6.36503 2.27635 5.4281 2.62464 5.04942C3.20211 4.41427 3.81099 4.34389 4.21371 4.29737C4.25216 4.29291 4.28804 4.28879 4.32117 4.2845C7.24009 4.07541 11.5937 4.04434 11.75 4.04314C11.9062 4.04417 16.2583 4.07541 19.1513 4.2845C19.1868 4.28896 19.2256 4.29342 19.2673 4.29823C19.6815 4.34544 20.3076 4.41685 20.8821 5.02968L20.8875 5.03534C21.2445 5.40733 21.4654 6.35628 21.5216 6.87006C21.5315 6.9825 21.6814 8.72332 21.6814 10.4173V12.1009Z" fill="black"/>
</g>
<defs>
<clipPath id="clip0">
<rect width="22.5" height="22.5" fill="white" transform="translate(0.5)"/>
</clipPath>
</defs>
</svg>
